<svg version="1.1" id="Layer_1" xmlns="http://www.w3.org/2000/svg" xmlns:xlink="http://www.w3.org/1999/xlink" x="0px" y="0px"
	 viewBox="0 0 90 90" style="enable-background:new 0 0 90 90;" xml:space="preserve">
<g>
	<path d="M0,16.8c29.9,0,59.8,0,90,0c0,18.8,0,37.4,0,56.4c-30,0-60,0-90,0C0,54.4,0,35.6,0,16.8z M78.8,28.3c-22.7,0-44.9,0-67.3,0
		c0,11.3,0,22.3,0,33.4c22.6,0,44.9,0,67.3,0C78.8,50.4,78.8,39.4,78.8,28.3z"/>
	<path d="M22.7,50.5c0-3.6,0-7.1,0-10.8c14.8,0,29.7,0,44.7,0c0,3.5,0,7.1,0,10.8C52.6,50.5,37.7,50.5,22.7,50.5z"/>
</g>
</svg>
