<svg width="320" height="320" viewBox="0 0 320 320" fill="none" xmlns="http://www.w3.org/2000/svg">
<path fill-rule="evenodd" clip-rule="evenodd" d="M0 -3L320 -3V-2.18987L0 -2.18987L0 -3ZM0 3.43299L320 3.43299V4.32413L0 4.32413L0 3.43299ZM320 9.86389L0 9.86389L0 10.836L320 10.836V9.86389ZM0 16.2976L320 16.2976V17.3588L0 17.3588L0 16.2976ZM320 22.7308L0 22.7308L0 23.8731L320 23.8731V22.7308ZM0 29.1533L320 29.1533V30.3766L0 30.3766L0 29.1533ZM320 35.5868L0 35.5868L0 36.8911L320 36.8911V35.5868ZM0 42.0184L320 42.0184V43.4037L0 43.4037L0 42.0184ZM320 48.4509L0 48.4509L0 49.9253L320 49.9253V48.4509ZM0 54.8836L320 54.8836V56.4391L0 56.4391L0 54.8836ZM320 61.3155L0 61.3155L0 62.9519L320 62.9519V61.3155ZM0 67.748L320 67.748V69.4655L0 69.4655L0 67.748ZM320 74.181L0 74.181L0 75.9795L320 75.9795V74.181ZM0 80.6047L320 80.6047V82.4923L0 82.4923L0 80.6047ZM320 87.0367L0 87.0367L0 89.0053L320 89.0053V87.0367ZM0 93.4709L320 93.4709V95.5205L0 95.5205L0 93.4709ZM320 99.9016L0 99.9016L0 102.032L320 102.032V99.9016ZM0 106.335L320 106.335V108.546L0 108.546L0 106.335ZM320 112.768L0 112.768L0 115.069L320 115.069V112.768ZM0 119.198L320 119.198V121.58L0 121.58L0 119.198ZM320 125.632L0 125.632L0 128.095L320 128.095V125.632ZM0 132.055L320 132.055V134.599L0 134.599L0 132.055ZM320 138.489L0 138.489L0 141.113L320 141.113V138.489ZM0 144.921L320 144.921V147.635L0 147.635L0 144.921ZM320 151.353L0 151.353L0 154.148L320 154.148V151.353ZM0 157.785L320 157.785V160.661L0 160.661L0 157.785ZM320 164.218L0 164.218L0 167.175L320 167.175V164.218ZM0 170.651L320 170.651V173.697L0 173.697L0 170.651ZM320 177.082L0 177.082L0 180.209L320 180.209V177.082ZM0 183.508L320 183.508V186.716L0 186.716L0 183.508ZM320 189.939L0 189.939L0 193.229L320 193.229V189.939ZM0 196.371L320 196.371V199.741L0 199.741L0 196.371ZM320 202.805L0 202.805L0 206.264L320 206.264V202.805ZM0 209.237L320 209.237V212.777L0 212.777L0 209.237ZM320 215.668L0 215.668L0 219.289L320 219.289V215.668ZM0 222.102L320 222.102V225.804L0 225.804L0 222.102ZM320 228.534L0 228.534L0 232.317L320 232.317V228.534ZM0 234.958L320 234.958V238.83L0 238.83L0 234.958ZM320 241.39L0 241.39L0 245.343L320 245.343V241.39ZM0 247.823L320 247.823V251.858L0 251.858L0 247.823ZM320 254.255L0 254.255L0 258.37L320 258.37V254.255ZM0 260.688L320 260.688V264.884L0 264.884L0 260.688ZM320 267.12L0 267.12L0 271.406L320 271.406V267.12ZM0 273.552L320 273.552V277.919L0 277.919L0 273.552ZM320 279.985L0 279.985L0 284.432L320 284.432L320 279.985ZM0 286.408L320 286.408V290.937L0 290.937L0 286.408ZM320 292.842L0 292.842L0 297.451L320 297.451V292.842ZM0 299.274L320 299.274V303.973L0 303.973L0 299.274ZM320 305.707L0 305.707L0 310.487L320 310.487V305.707ZM0 312.139L320 312.139V317L0 317L0 312.139Z" fill="#292929"/>
<path fill-rule="evenodd" clip-rule="evenodd" d="M288 188.905H32V191.368H288V188.905ZM288 182.401H32V184.945H288V182.401ZM288 178.511H32V175.887H288V178.511ZM288 169.365H32V172.079H288V169.365ZM288 165.647H32V162.852H288V165.647ZM288 62.7451H32V58.6296H288V62.7451ZM288 52.1158H32V56.3123H288V52.1158ZM288 49.88H32V45.5945H288V49.88ZM288 39.0811H32V43.4477H288V39.0811ZM288 37.0154H32V32.5679H288V37.0154ZM32 69.1769V65.1425H64V69.1769H32ZM32 75.6104V71.657H64V75.6104H32ZM32 82.0419V78.1696H64V82.0419H32ZM32 88.4659V84.6826H64V88.4659H32ZM32 94.8982V91.1959H64V94.8982H32ZM32 101.332V97.711H64V101.332H32ZM32 107.763V104.223H64V107.763H32ZM32 114.195V110.736H64V114.195H32ZM32 120.629V117.259H64V120.629H32ZM32 127.061V123.771H64V127.061H32ZM32 133.492V130.284H64V133.492H32ZM32 139.918V136.791H64V139.918H32ZM32 146.349V143.303H64V146.349H32ZM32 152.782V149.825H64V152.782H32ZM32 159.215V156.339H64V159.215H32ZM224 127.061H96V123.771H224V127.061ZM256 130.284H288V133.492H256V130.284ZM256 136.791H288V139.918H256V136.791ZM256 143.303H288V146.349H256V143.303ZM256 149.825H288V152.782H256V149.825ZM256 156.339H288V159.215H256V156.339ZM256 127.061V123.771H288V127.061H256ZM256 120.629H288V117.259H256V120.629ZM224 117.259H96V120.629H224V117.259ZM224 114.195H96V110.736H224V114.195ZM256 114.195H288V110.736H256V114.195ZM256 107.763H288V104.223H256V107.763ZM224 104.223H96V107.763H224V104.223ZM224 101.332H96V97.711H224V101.332ZM256 101.332H288V97.711H256V101.332ZM256 94.8982H288V91.1959H256V94.8982ZM256 88.4659H288V84.6826H256V88.4659ZM256 82.0419H288V78.1696H256V82.0419ZM256 75.6104H288V71.657H256V75.6104ZM256 69.1769H288V65.1425H256V69.1769Z" fill="#292929"/>
</svg>
