<svg xmlns="http://www.w3.org/2000/svg" xmlns:xlink="http://www.w3.org/1999/xlink" viewBox="0 0 2048 248" width="2048" height="248" preserveAspectRatio="xMidYMid meet" style="width: 100%; height: 100%; transform: translate3d(0px, 0px, 0px); content-visibility: visible;"><defs><clipPath id="__lottie_element_2"><rect width="2048" height="248" x="0" y="0"></rect></clipPath><g id="__lottie_element_3"><g transform="matrix(1,0,0,1,984,136)" opacity="1" style="display: block;"><g opacity="1" transform="matrix(1,0,0,1,-920,40)"><path stroke-linecap="square" stroke-linejoin="miter" fill-opacity="0" stroke-miterlimit="4" stroke="rgb(0,0,0)" stroke-opacity="1" stroke-width="24" d=" M-1029.7569580078125,-192.5679931640625 C-1029.7569580078125,-192.5679931640625 -891.39501953125,-54.20600128173828 -891.39501953125,-54.20600128173828 C-891.39501953125,-54.20600128173828 -1030,83.91300201416016 -1030,83.91300201416016 C-1030,83.91300201416016 -258.6319885253906,91.80999755859375 -258.6319885253906,91.80999755859375 C-258.6319885253906,91.80999755859375 -114,-52.82099914550781 -114,-52.82099914550781 C-114,-52.82099914550781 -252.60499572753906,-191.42599487304688 -252.60499572753906,-191.42599487304688 C-252.60499572753906,-191.42599487304688 -1029.7569580078125,-192.5679931640625 -1029.7569580078125,-192.5679931640625z"></path><path fill="rgb(255,0,0)" fill-opacity="1" d=" M-1029.7569580078125,-192.5679931640625 C-1029.7569580078125,-192.5679931640625 -891.39501953125,-54.20600128173828 -891.39501953125,-54.20600128173828 C-891.39501953125,-54.20600128173828 -1030,83.91300201416016 -1030,83.91300201416016 C-1030,83.91300201416016 -258.6319885253906,91.80999755859375 -258.6319885253906,91.80999755859375 C-258.6319885253906,91.80999755859375 -114,-52.82099914550781 -114,-52.82099914550781 C-114,-52.82099914550781 -252.60499572753906,-191.42599487304688 -252.60499572753906,-191.42599487304688 C-252.60499572753906,-191.42599487304688 -1029.7569580078125,-192.5679931640625 -1029.7569580078125,-192.5679931640625z"></path></g></g></g><clipPath id="__lottie_element_7"><path d="M0,0 L5000,0 L5000,496 L0,496z"></path></clipPath><clipPath id="__lottie_element_15"><path d="M0,0 L5000,0 L5000,496 L0,496z"></path></clipPath><g id="__lottie_element_18"><g clip-path="url(#__lottie_element_19)" style="display: none;"><g style="display: none;"><rect width="5000" height="500" fill="#000000"></rect></g><g mask="url(#__lottie_element_23)" style="display: none;"><rect width="3000" height="536" fill="#ffffff"></rect></g></g></g><clipPath id="__lottie_element_19"><path d="M0,0 L5000,0 L5000,496 L0,496z"></path></clipPath><mask id="__lottie_element_23"><path fill="#ffffff" clip-rule="nonzero" d=" M38.284000396728516,-0.3580000102519989 C38.284000396728516,-0.3580000102519989 114.28399658203125,-0.3580000102519989 114.28399658203125,-0.3580000102519989 C114.28399658203125,-0.3580000102519989 114.28399658203125,37.641998291015625 114.28399658203125,37.641998291015625 C114.28399658203125,37.641998291015625 38.284000396728516,37.641998291015625 38.284000396728516,37.641998291015625 C38.284000396728516,37.641998291015625 38.284000396728516,73.64199829101562 38.284000396728516,73.64199829101562 C38.284000396728516,73.64199829101562 104.28399658203125,73.64199829101562 104.28399658203125,73.64199829101562 C104.28399658203125,73.64199829101562 104.28399658203125,111.64199829101562 104.28399658203125,111.64199829101562 C104.28399658203125,111.64199829101562 38.284000396728516,111.64199829101562 38.284000396728516,111.64199829101562 C38.284000396728516,111.64199829101562 38.284000396728516,153.64199829101562 38.284000396728516,153.64199829101562 C38.284000396728516,153.64199829101562 114.28399658203125,153.64199829101562 114.28399658203125,153.64199829101562 C114.28399658203125,153.64199829101562 114.28399658203125,191.64199829101562 114.28399658203125,191.64199829101562 C114.28399658203125,191.64199829101562 38.284000396728516,191.64199829101562 38.284000396728516,191.64199829101562 C38.284000396728516,191.64199829101562 0.2840000092983246,191.64199829101562 0.2840000092983246,191.64199829101562 C0.2840000092983246,191.64199829101562 0.2840000092983246,153.64199829101562 0.2840000092983246,153.64199829101562 C0.2840000092983246,153.64199829101562 0.2840000092983246,111.64199829101562 0.2840000092983246,111.64199829101562 C0.2840000092983246,111.64199829101562 0.2840000092983246,73.64199829101562 0.2840000092983246,73.64199829101562 C0.2840000092983246,73.64199829101562 0.2840000092983246,37.641998291015625 0.2840000092983246,37.641998291015625 C0.2840000092983246,37.641998291015625 0.2840000092983246,-0.3580000102519989 0.2840000092983246,-0.3580000102519989 C0.2840000092983246,-0.3580000102519989 38.284000396728516,-0.3580000102519989 38.284000396728516,-0.3580000102519989"></path><path fill="#ffffff" clip-rule="nonzero" d=" M124.28399658203125,-0.3580000102519989 C124.28399658203125,-0.3580000102519989 162.28399658203125,-0.3580000102519989 162.28399658203125,-0.3580000102519989 C162.28399658203125,-0.3580000102519989 216.2830047607422,112.63999938964844 216.2830047607422,112.63999938964844 C216.2830047607422,112.63999938964844 216.2830047607422,-0.3580000102519989 216.2830047607422,-0.3580000102519989 C216.2830047607422,-0.3580000102519989 254.2830047607422,-0.3580000102519989 254.2830047607422,-0.3580000102519989 C254.2830047607422,-0.3580000102519989 254.2830047607422,191.64199829101562 254.2830047607422,191.64199829101562 C254.2830047607422,191.64199829101562 216.28399658203125,191.64199829101562 216.28399658203125,191.64199829101562 C216.28399658203125,191.64199829101562 216.2830047607422,191.64199829101562 216.2830047607422,191.64199829101562 C216.2830047607422,191.64199829101562 216.2830047607422,191.63999938964844 216.2830047607422,191.63999938964844 C216.2830047607422,191.63999938964844 162.28399658203125,78.64199829101562 162.28399658203125,78.64199829101562 C162.28399658203125,78.64199829101562 162.28399658203125,191.64199829101562 162.28399658203125,191.64199829101562 C162.28399658203125,191.64199829101562 124.28399658203125,191.64199829101562 124.28399658203125,191.64199829101562 C124.28399658203125,191.64199829101562 124.28399658203125,-0.3580000102519989 124.28399658203125,-0.3580000102519989"></path><path fill="#ffffff" clip-rule="nonzero" d=" M307.281005859375,-0.3580000102519989 C307.281005859375,-0.3580000102519989 262.2799987792969,-0.3580000102519989 262.2799987792969,-0.3580000102519989 C262.2799987792969,-0.3580000102519989 262.2799987792969,37.641998291015625 262.2799987792969,37.641998291015625 C262.2799987792969,37.641998291015625 307.281005859375,37.641998291015625 307.281005859375,37.641998291015625 C307.281005859375,37.641998291015625 307.281005859375,191.64199829101562 307.281005859375,191.64199829101562 C307.281005859375,191.64199829101562 345.281005859375,191.64199829101562 345.281005859375,191.64199829101562 C345.281005859375,191.64199829101562 345.281005859375,37.641998291015625 345.281005859375,37.641998291015625 C345.281005859375,37.641998291015625 390.2799987792969,37.641998291015625 390.2799987792969,37.641998291015625 C390.2799987792969,37.641998291015625 390.2799987792969,-0.3580000102519989 390.2799987792969,-0.3580000102519989 C390.2799987792969,-0.3580000102519989 345.281005859375,-0.3580000102519989 345.281005859375,-0.3580000102519989 C345.281005859375,-0.3580000102519989 307.281005859375,-0.3580000102519989 307.281005859375,-0.3580000102519989"></path><path fill="#ffffff" clip-rule="nonzero" d=" M512.2839965820312,-0.3580000102519989 C512.2839965820312,-0.3580000102519989 436.28399658203125,-0.3580000102519989 436.28399658203125,-0.3580000102519989 C436.28399658203125,-0.3580000102519989 398.28399658203125,-0.3580000102519989 398.28399658203125,-0.3580000102519989 C398.28399658203125,-0.3580000102519989 398.28399658203125,37.641998291015625 398.28399658203125,37.641998291015625 C398.28399658203125,37.641998291015625 398.28399658203125,73.64199829101562 398.28399658203125,73.64199829101562 C398.28399658203125,73.64199829101562 398.28399658203125,111.64199829101562 398.28399658203125,111.64199829101562 C398.28399658203125,111.64199829101562 398.28399658203125,153.64199829101562 398.28399658203125,153.64199829101562 C398.28399658203125,153.64199829101562 398.28399658203125,191.64199829101562 398.28399658203125,191.64199829101562 C398.28399658203125,191.64199829101562 436.28399658203125,191.64199829101562 436.28399658203125,191.64199829101562 C436.28399658203125,191.64199829101562 512.2839965820312,191.64199829101562 512.2839965820312,191.64199829101562 C512.2839965820312,191.64199829101562 512.2839965820312,153.64199829101562 512.2839965820312,153.64199829101562 C512.2839965820312,153.64199829101562 436.28399658203125,153.64199829101562 436.28399658203125,153.64199829101562 C436.28399658203125,153.64199829101562 436.28399658203125,111.64199829101562 436.28399658203125,111.64199829101562 C436.28399658203125,111.64199829101562 502.28399658203125,111.64199829101562 502.28399658203125,111.64199829101562 C502.28399658203125,111.64199829101562 502.28399658203125,73.64199829101562 502.28399658203125,73.64199829101562 C502.28399658203125,73.64199829101562 436.28399658203125,73.64199829101562 436.28399658203125,73.64199829101562 C436.28399658203125,73.64199829101562 436.28399658203125,37.641998291015625 436.28399658203125,37.641998291015625 C436.28399658203125,37.641998291015625 512.2839965820312,37.641998291015625 512.2839965820312,37.641998291015625 C512.2839965820312,37.641998291015625 512.2839965820312,-0.3580000102519989 512.2839965820312,-0.3580000102519989"></path><path fill="#ffffff" clip-rule="nonzero" d=" M520.2839965820312,-0.3580000102519989 C520.2839965820312,-0.3580000102519989 520.2839965820312,191.64199829101562 520.2839965820312,191.64199829101562 C520.2839965820312,191.64199829101562 558.2839965820312,191.64199829101562 558.2839965820312,191.64199829101562 C558.2839965820312,191.64199829101562 558.2839965820312,121.64199829101562 558.2839965820312,121.64199829101562 C558.2839965820312,121.64199829101562 581.7839965820312,121.64199829101562 581.7839965820312,121.64199829101562 C603.5850219726562,121.64199829101562 604.5850219726562,150.38299560546875 605.3099975585938,171.2469940185547 C605.6510009765625,181.0540008544922 605.9320068359375,189.1199951171875 608.2839965820312,191.64199829101562 C608.2839965820312,191.64199829101562 648.2839965820312,191.64199829101562 648.2839965820312,191.64199829101562 C648.2839965820312,191.64199829101562 648.2839965820312,189.01300048828125 648.2839965820312,189.01300048828125 C645.4810180664062,187.99200439453125 644.8679809570312,179.2689971923828 644.052001953125,167.65499877929688 C642.344970703125,143.3509979248047 639.7490234375,106.38800048828125 614.3300170898438,100.87300109863281 C614.3300170898438,100.87300109863281 614.3300170898438,100.34700012207031 614.3300170898438,100.34700012207031 C632.9819946289062,95.08799743652344 645.2839965820312,79.93599700927734 645.2839965820312,53.641998291015625 C645.2839965820312,19.459999084472656 624.573974609375,-0.3580000102519989 591.2119750976562,-0.3580000102519989 C591.2119750976562,-0.3580000102519989 520.2839965820312,-0.3580000102519989 520.2839965820312,-0.3580000102519989"></path><path fill="#000000" clip-rule="nonzero" d=" M583.7839965820312,83.64199829101562 C583.7839965820312,83.64199829101562 558.2839965820312,83.64199829101562 558.2839965820312,83.64199829101562 C558.2839965820312,83.64199829101562 558.2839965820312,37.641998291015625 558.2839965820312,37.641998291015625 C558.2839965820312,37.641998291015625 583.7839965820312,37.641998291015625 583.7839965820312,37.641998291015625 C599.02001953125,37.641998291015625 607.2839965820312,45.36600112915039 607.2839965820312,61.141998291015625 C607.2839965820312,76.91799926757812 599.02001953125,83.64199829101562 583.7839965820312,83.64199829101562"></path></mask><clipPath id="__lottie_element_29"><path d="M0,0 L5000,0 L5000,496 L0,496z"></path></clipPath><mask id="__lottie_element_18_3" mask-type="luminance"><use xlink:href="#__lottie_element_18"></use></mask><clipPath id="__lottie_element_130"><path d="M0,0 L5000,0 L5000,496 L0,496z"></path></clipPath><g id="__lottie_element_133"><g clip-path="url(#__lottie_element_134)" style="display: none;"><g style="display: none;"><rect width="5000" height="500" fill="#ffffff"></rect></g><g mask="url(#__lottie_element_141)" style="display: none;"><rect width="3000" height="536" fill="#000000"></rect></g><g mask="url(#__lottie_element_138)" style="display: none;"><rect width="3000" height="536" fill="#000000"></rect></g></g></g><clipPath id="__lottie_element_134"><path d="M0,0 L5000,0 L5000,496 L0,496z"></path></clipPath><mask id="__lottie_element_138"><path fill="#ffffff" clip-rule="nonzero" d=" M38.284000396728516,-0.3580000102519989 C38.284000396728516,-0.3580000102519989 114.28399658203125,-0.3580000102519989 114.28399658203125,-0.3580000102519989 C114.28399658203125,-0.3580000102519989 114.28399658203125,37.641998291015625 114.28399658203125,37.641998291015625 C114.28399658203125,37.641998291015625 38.284000396728516,37.641998291015625 38.284000396728516,37.641998291015625 C38.284000396728516,37.641998291015625 38.284000396728516,73.64199829101562 38.284000396728516,73.64199829101562 C38.284000396728516,73.64199829101562 104.28399658203125,73.64199829101562 104.28399658203125,73.64199829101562 C104.28399658203125,73.64199829101562 104.28399658203125,111.64199829101562 104.28399658203125,111.64199829101562 C104.28399658203125,111.64199829101562 38.284000396728516,111.64199829101562 38.284000396728516,111.64199829101562 C38.284000396728516,111.64199829101562 38.284000396728516,153.64199829101562 38.284000396728516,153.64199829101562 C38.284000396728516,153.64199829101562 114.28399658203125,153.64199829101562 114.28399658203125,153.64199829101562 C114.28399658203125,153.64199829101562 114.28399658203125,191.64199829101562 114.28399658203125,191.64199829101562 C114.28399658203125,191.64199829101562 38.284000396728516,191.64199829101562 38.284000396728516,191.64199829101562 C38.284000396728516,191.64199829101562 0.2840000092983246,191.64199829101562 0.2840000092983246,191.64199829101562 C0.2840000092983246,191.64199829101562 0.2840000092983246,153.64199829101562 0.2840000092983246,153.64199829101562 C0.2840000092983246,153.64199829101562 0.2840000092983246,111.64199829101562 0.2840000092983246,111.64199829101562 C0.2840000092983246,111.64199829101562 0.2840000092983246,73.64199829101562 0.2840000092983246,73.64199829101562 C0.2840000092983246,73.64199829101562 0.2840000092983246,37.641998291015625 0.2840000092983246,37.641998291015625 C0.2840000092983246,37.641998291015625 0.2840000092983246,-0.3580000102519989 0.2840000092983246,-0.3580000102519989 C0.2840000092983246,-0.3580000102519989 38.284000396728516,-0.3580000102519989 38.284000396728516,-0.3580000102519989"></path><path fill="#ffffff" clip-rule="nonzero" d=" M124.28399658203125,-0.3580000102519989 C124.28399658203125,-0.3580000102519989 162.28399658203125,-0.3580000102519989 162.28399658203125,-0.3580000102519989 C162.28399658203125,-0.3580000102519989 216.2830047607422,112.63999938964844 216.2830047607422,112.63999938964844 C216.2830047607422,112.63999938964844 216.2830047607422,-0.3580000102519989 216.2830047607422,-0.3580000102519989 C216.2830047607422,-0.3580000102519989 254.2830047607422,-0.3580000102519989 254.2830047607422,-0.3580000102519989 C254.2830047607422,-0.3580000102519989 254.2830047607422,191.64199829101562 254.2830047607422,191.64199829101562 C254.2830047607422,191.64199829101562 216.28399658203125,191.64199829101562 216.28399658203125,191.64199829101562 C216.28399658203125,191.64199829101562 216.2830047607422,191.64199829101562 216.2830047607422,191.64199829101562 C216.2830047607422,191.64199829101562 216.2830047607422,191.63999938964844 216.2830047607422,191.63999938964844 C216.2830047607422,191.63999938964844 162.28399658203125,78.64199829101562 162.28399658203125,78.64199829101562 C162.28399658203125,78.64199829101562 162.28399658203125,191.64199829101562 162.28399658203125,191.64199829101562 C162.28399658203125,191.64199829101562 124.28399658203125,191.64199829101562 124.28399658203125,191.64199829101562 C124.28399658203125,191.64199829101562 124.28399658203125,-0.3580000102519989 124.28399658203125,-0.3580000102519989"></path><path fill="#ffffff" clip-rule="nonzero" d=" M307.281005859375,-0.3580000102519989 C307.281005859375,-0.3580000102519989 262.2799987792969,-0.3580000102519989 262.2799987792969,-0.3580000102519989 C262.2799987792969,-0.3580000102519989 262.2799987792969,37.641998291015625 262.2799987792969,37.641998291015625 C262.2799987792969,37.641998291015625 307.281005859375,37.641998291015625 307.281005859375,37.641998291015625 C307.281005859375,37.641998291015625 307.281005859375,191.64199829101562 307.281005859375,191.64199829101562 C307.281005859375,191.64199829101562 345.281005859375,191.64199829101562 345.281005859375,191.64199829101562 C345.281005859375,191.64199829101562 345.281005859375,37.641998291015625 345.281005859375,37.641998291015625 C345.281005859375,37.641998291015625 390.2799987792969,37.641998291015625 390.2799987792969,37.641998291015625 C390.2799987792969,37.641998291015625 390.2799987792969,-0.3580000102519989 390.2799987792969,-0.3580000102519989 C390.2799987792969,-0.3580000102519989 345.281005859375,-0.3580000102519989 345.281005859375,-0.3580000102519989 C345.281005859375,-0.3580000102519989 307.281005859375,-0.3580000102519989 307.281005859375,-0.3580000102519989"></path><path fill="#ffffff" clip-rule="nonzero" d=" M512.2839965820312,-0.3580000102519989 C512.2839965820312,-0.3580000102519989 436.28399658203125,-0.3580000102519989 436.28399658203125,-0.3580000102519989 C436.28399658203125,-0.3580000102519989 398.28399658203125,-0.3580000102519989 398.28399658203125,-0.3580000102519989 C398.28399658203125,-0.3580000102519989 398.28399658203125,37.641998291015625 398.28399658203125,37.641998291015625 C398.28399658203125,37.641998291015625 398.28399658203125,73.64199829101562 398.28399658203125,73.64199829101562 C398.28399658203125,73.64199829101562 398.28399658203125,111.64199829101562 398.28399658203125,111.64199829101562 C398.28399658203125,111.64199829101562 398.28399658203125,153.64199829101562 398.28399658203125,153.64199829101562 C398.28399658203125,153.64199829101562 398.28399658203125,191.64199829101562 398.28399658203125,191.64199829101562 C398.28399658203125,191.64199829101562 436.28399658203125,191.64199829101562 436.28399658203125,191.64199829101562 C436.28399658203125,191.64199829101562 512.2839965820312,191.64199829101562 512.2839965820312,191.64199829101562 C512.2839965820312,191.64199829101562 512.2839965820312,153.64199829101562 512.2839965820312,153.64199829101562 C512.2839965820312,153.64199829101562 436.28399658203125,153.64199829101562 436.28399658203125,153.64199829101562 C436.28399658203125,153.64199829101562 436.28399658203125,111.64199829101562 436.28399658203125,111.64199829101562 C436.28399658203125,111.64199829101562 502.28399658203125,111.64199829101562 502.28399658203125,111.64199829101562 C502.28399658203125,111.64199829101562 502.28399658203125,73.64199829101562 502.28399658203125,73.64199829101562 C502.28399658203125,73.64199829101562 436.28399658203125,73.64199829101562 436.28399658203125,73.64199829101562 C436.28399658203125,73.64199829101562 436.28399658203125,37.641998291015625 436.28399658203125,37.641998291015625 C436.28399658203125,37.641998291015625 512.2839965820312,37.641998291015625 512.2839965820312,37.641998291015625 C512.2839965820312,37.641998291015625 512.2839965820312,-0.3580000102519989 512.2839965820312,-0.3580000102519989"></path><path fill="#ffffff" clip-rule="nonzero" d=" M520.2839965820312,-0.3580000102519989 C520.2839965820312,-0.3580000102519989 520.2839965820312,191.64199829101562 520.2839965820312,191.64199829101562 C520.2839965820312,191.64199829101562 558.2839965820312,191.64199829101562 558.2839965820312,191.64199829101562 C558.2839965820312,191.64199829101562 558.2839965820312,121.64199829101562 558.2839965820312,121.64199829101562 C558.2839965820312,121.64199829101562 581.7839965820312,121.64199829101562 581.7839965820312,121.64199829101562 C603.5850219726562,121.64199829101562 604.5850219726562,150.38299560546875 605.3099975585938,171.2469940185547 C605.6510009765625,181.0540008544922 605.9320068359375,189.1199951171875 608.2839965820312,191.64199829101562 C608.2839965820312,191.64199829101562 648.2839965820312,191.64199829101562 648.2839965820312,191.64199829101562 C648.2839965820312,191.64199829101562 648.2839965820312,189.01300048828125 648.2839965820312,189.01300048828125 C645.4810180664062,187.99200439453125 644.8679809570312,179.2689971923828 644.052001953125,167.65499877929688 C642.344970703125,143.3509979248047 639.7490234375,106.38800048828125 614.3300170898438,100.87300109863281 C614.3300170898438,100.87300109863281 614.3300170898438,100.34700012207031 614.3300170898438,100.34700012207031 C632.9819946289062,95.08799743652344 645.2839965820312,79.93599700927734 645.2839965820312,53.641998291015625 C645.2839965820312,19.459999084472656 624.573974609375,-0.3580000102519989 591.2119750976562,-0.3580000102519989 C591.2119750976562,-0.3580000102519989 520.2839965820312,-0.3580000102519989 520.2839965820312,-0.3580000102519989"></path><path fill="#000000" clip-rule="nonzero" d=" M583.7839965820312,83.64199829101562 C583.7839965820312,83.64199829101562 558.2839965820312,83.64199829101562 558.2839965820312,83.64199829101562 C558.2839965820312,83.64199829101562 558.2839965820312,37.641998291015625 558.2839965820312,37.641998291015625 C558.2839965820312,37.641998291015625 583.7839965820312,37.641998291015625 583.7839965820312,37.641998291015625 C599.02001953125,37.641998291015625 607.2839965820312,45.36600112915039 607.2839965820312,61.141998291015625 C607.2839965820312,76.91799926757812 599.02001953125,83.64199829101562 583.7839965820312,83.64199829101562"></path></mask><mask id="__lottie_element_141"><path fill="#ffffff" clip-rule="nonzero" d=" M38.284000396728516,-0.3580000102519989 C38.284000396728516,-0.3580000102519989 114.28399658203125,-0.3580000102519989 114.28399658203125,-0.3580000102519989 C114.28399658203125,-0.3580000102519989 114.28399658203125,37.641998291015625 114.28399658203125,37.641998291015625 C114.28399658203125,37.641998291015625 38.284000396728516,37.641998291015625 38.284000396728516,37.641998291015625 C38.284000396728516,37.641998291015625 38.284000396728516,73.64199829101562 38.284000396728516,73.64199829101562 C38.284000396728516,73.64199829101562 104.28399658203125,73.64199829101562 104.28399658203125,73.64199829101562 C104.28399658203125,73.64199829101562 104.28399658203125,111.64199829101562 104.28399658203125,111.64199829101562 C104.28399658203125,111.64199829101562 38.284000396728516,111.64199829101562 38.284000396728516,111.64199829101562 C38.284000396728516,111.64199829101562 38.284000396728516,153.64199829101562 38.284000396728516,153.64199829101562 C38.284000396728516,153.64199829101562 114.28399658203125,153.64199829101562 114.28399658203125,153.64199829101562 C114.28399658203125,153.64199829101562 114.28399658203125,191.64199829101562 114.28399658203125,191.64199829101562 C114.28399658203125,191.64199829101562 38.284000396728516,191.64199829101562 38.284000396728516,191.64199829101562 C38.284000396728516,191.64199829101562 0.2840000092983246,191.64199829101562 0.2840000092983246,191.64199829101562 C0.2840000092983246,191.64199829101562 0.2840000092983246,153.64199829101562 0.2840000092983246,153.64199829101562 C0.2840000092983246,153.64199829101562 0.2840000092983246,111.64199829101562 0.2840000092983246,111.64199829101562 C0.2840000092983246,111.64199829101562 0.2840000092983246,73.64199829101562 0.2840000092983246,73.64199829101562 C0.2840000092983246,73.64199829101562 0.2840000092983246,37.641998291015625 0.2840000092983246,37.641998291015625 C0.2840000092983246,37.641998291015625 0.2840000092983246,-0.3580000102519989 0.2840000092983246,-0.3580000102519989 C0.2840000092983246,-0.3580000102519989 38.284000396728516,-0.3580000102519989 38.284000396728516,-0.3580000102519989"></path><path fill="#ffffff" clip-rule="nonzero" d=" M124.28399658203125,-0.3580000102519989 C124.28399658203125,-0.3580000102519989 162.28399658203125,-0.3580000102519989 162.28399658203125,-0.3580000102519989 C162.28399658203125,-0.3580000102519989 216.2830047607422,112.63999938964844 216.2830047607422,112.63999938964844 C216.2830047607422,112.63999938964844 216.2830047607422,-0.3580000102519989 216.2830047607422,-0.3580000102519989 C216.2830047607422,-0.3580000102519989 254.2830047607422,-0.3580000102519989 254.2830047607422,-0.3580000102519989 C254.2830047607422,-0.3580000102519989 254.2830047607422,191.64199829101562 254.2830047607422,191.64199829101562 C254.2830047607422,191.64199829101562 216.28399658203125,191.64199829101562 216.28399658203125,191.64199829101562 C216.28399658203125,191.64199829101562 216.2830047607422,191.64199829101562 216.2830047607422,191.64199829101562 C216.2830047607422,191.64199829101562 216.2830047607422,191.63999938964844 216.2830047607422,191.63999938964844 C216.2830047607422,191.63999938964844 162.28399658203125,78.64199829101562 162.28399658203125,78.64199829101562 C162.28399658203125,78.64199829101562 162.28399658203125,191.64199829101562 162.28399658203125,191.64199829101562 C162.28399658203125,191.64199829101562 124.28399658203125,191.64199829101562 124.28399658203125,191.64199829101562 C124.28399658203125,191.64199829101562 124.28399658203125,-0.3580000102519989 124.28399658203125,-0.3580000102519989"></path><path fill="#ffffff" clip-rule="nonzero" d=" M307.281005859375,-0.3580000102519989 C307.281005859375,-0.3580000102519989 262.2799987792969,-0.3580000102519989 262.2799987792969,-0.3580000102519989 C262.2799987792969,-0.3580000102519989 262.2799987792969,37.641998291015625 262.2799987792969,37.641998291015625 C262.2799987792969,37.641998291015625 307.281005859375,37.641998291015625 307.281005859375,37.641998291015625 C307.281005859375,37.641998291015625 307.281005859375,191.64199829101562 307.281005859375,191.64199829101562 C307.281005859375,191.64199829101562 345.281005859375,191.64199829101562 345.281005859375,191.64199829101562 C345.281005859375,191.64199829101562 345.281005859375,37.641998291015625 345.281005859375,37.641998291015625 C345.281005859375,37.641998291015625 390.2799987792969,37.641998291015625 390.2799987792969,37.641998291015625 C390.2799987792969,37.641998291015625 390.2799987792969,-0.3580000102519989 390.2799987792969,-0.3580000102519989 C390.2799987792969,-0.3580000102519989 345.281005859375,-0.3580000102519989 345.281005859375,-0.3580000102519989 C345.281005859375,-0.3580000102519989 307.281005859375,-0.3580000102519989 307.281005859375,-0.3580000102519989"></path><path fill="#ffffff" clip-rule="nonzero" d=" M512.2839965820312,-0.3580000102519989 C512.2839965820312,-0.3580000102519989 436.28399658203125,-0.3580000102519989 436.28399658203125,-0.3580000102519989 C436.28399658203125,-0.3580000102519989 398.28399658203125,-0.3580000102519989 398.28399658203125,-0.3580000102519989 C398.28399658203125,-0.3580000102519989 398.28399658203125,37.641998291015625 398.28399658203125,37.641998291015625 C398.28399658203125,37.641998291015625 398.28399658203125,73.64199829101562 398.28399658203125,73.64199829101562 C398.28399658203125,73.64199829101562 398.28399658203125,111.64199829101562 398.28399658203125,111.64199829101562 C398.28399658203125,111.64199829101562 398.28399658203125,153.64199829101562 398.28399658203125,153.64199829101562 C398.28399658203125,153.64199829101562 398.28399658203125,191.64199829101562 398.28399658203125,191.64199829101562 C398.28399658203125,191.64199829101562 436.28399658203125,191.64199829101562 436.28399658203125,191.64199829101562 C436.28399658203125,191.64199829101562 512.2839965820312,191.64199829101562 512.2839965820312,191.64199829101562 C512.2839965820312,191.64199829101562 512.2839965820312,153.64199829101562 512.2839965820312,153.64199829101562 C512.2839965820312,153.64199829101562 436.28399658203125,153.64199829101562 436.28399658203125,153.64199829101562 C436.28399658203125,153.64199829101562 436.28399658203125,111.64199829101562 436.28399658203125,111.64199829101562 C436.28399658203125,111.64199829101562 502.28399658203125,111.64199829101562 502.28399658203125,111.64199829101562 C502.28399658203125,111.64199829101562 502.28399658203125,73.64199829101562 502.28399658203125,73.64199829101562 C502.28399658203125,73.64199829101562 436.28399658203125,73.64199829101562 436.28399658203125,73.64199829101562 C436.28399658203125,73.64199829101562 436.28399658203125,37.641998291015625 436.28399658203125,37.641998291015625 C436.28399658203125,37.641998291015625 512.2839965820312,37.641998291015625 512.2839965820312,37.641998291015625 C512.2839965820312,37.641998291015625 512.2839965820312,-0.3580000102519989 512.2839965820312,-0.3580000102519989"></path><path fill="#ffffff" clip-rule="nonzero" d=" M520.2839965820312,-0.3580000102519989 C520.2839965820312,-0.3580000102519989 520.2839965820312,191.64199829101562 520.2839965820312,191.64199829101562 C520.2839965820312,191.64199829101562 558.2839965820312,191.64199829101562 558.2839965820312,191.64199829101562 C558.2839965820312,191.64199829101562 558.2839965820312,121.64199829101562 558.2839965820312,121.64199829101562 C558.2839965820312,121.64199829101562 581.7839965820312,121.64199829101562 581.7839965820312,121.64199829101562 C603.5850219726562,121.64199829101562 604.5850219726562,150.38299560546875 605.3099975585938,171.2469940185547 C605.6510009765625,181.0540008544922 605.9320068359375,189.1199951171875 608.2839965820312,191.64199829101562 C608.2839965820312,191.64199829101562 648.2839965820312,191.64199829101562 648.2839965820312,191.64199829101562 C648.2839965820312,191.64199829101562 648.2839965820312,189.01300048828125 648.2839965820312,189.01300048828125 C645.4810180664062,187.99200439453125 644.8679809570312,179.2689971923828 644.052001953125,167.65499877929688 C642.344970703125,143.3509979248047 639.7490234375,106.38800048828125 614.3300170898438,100.87300109863281 C614.3300170898438,100.87300109863281 614.3300170898438,100.34700012207031 614.3300170898438,100.34700012207031 C632.9819946289062,95.08799743652344 645.2839965820312,79.93599700927734 645.2839965820312,53.641998291015625 C645.2839965820312,19.459999084472656 624.573974609375,-0.3580000102519989 591.2119750976562,-0.3580000102519989 C591.2119750976562,-0.3580000102519989 520.2839965820312,-0.3580000102519989 520.2839965820312,-0.3580000102519989"></path><path fill="#000000" clip-rule="nonzero" d=" M583.7839965820312,83.64199829101562 C583.7839965820312,83.64199829101562 558.2839965820312,83.64199829101562 558.2839965820312,83.64199829101562 C558.2839965820312,83.64199829101562 558.2839965820312,37.641998291015625 558.2839965820312,37.641998291015625 C558.2839965820312,37.641998291015625 583.7839965820312,37.641998291015625 583.7839965820312,37.641998291015625 C599.02001953125,37.641998291015625 607.2839965820312,45.36600112915039 607.2839965820312,61.141998291015625 C607.2839965820312,76.91799926757812 599.02001953125,83.64199829101562 583.7839965820312,83.64199829101562"></path></mask><clipPath id="__lottie_element_147"><path d="M0,0 L5000,0 L5000,496 L0,496z"></path></clipPath><mask id="__lottie_element_133_3" mask-type="luminance"><use xlink:href="#__lottie_element_133"></use></mask><clipPath id="__lottie_element_248"><path d="M0,0 L5000,0 L5000,496 L0,496z"></path></clipPath><clipPath id="__lottie_element_349"><path d="M0,0 L5000,0 L5000,496 L0,496z"></path></clipPath><g id="__lottie_element_352"><g clip-path="url(#__lottie_element_353)" style="display: block;" transform="matrix(1,0,0,1,0,0)" opacity="1"><g style="display: block;" transform="matrix(1,0,0,0.9919999837875366,0,0)" opacity="1"><rect width="5000" height="500" fill="#000000"></rect></g><g mask="url(#__lottie_element_357)" style="display: block;" transform="matrix(2.6029999256134033,0,0,2.6025900840759277,1032.9410400390625,-2.8302950859069824)" opacity="1"><rect width="3000" height="536" fill="#ffffff"></rect></g></g></g><clipPath id="__lottie_element_353"><path d="M0,0 L5000,0 L5000,496 L0,496z"></path></clipPath><mask id="__lottie_element_357"><path fill="#ffffff" clip-rule="nonzero" d=" M38.284000396728516,-0.3580000102519989 C38.284000396728516,-0.3580000102519989 114.28399658203125,-0.3580000102519989 114.28399658203125,-0.3580000102519989 C114.28399658203125,-0.3580000102519989 114.28399658203125,37.641998291015625 114.28399658203125,37.641998291015625 C114.28399658203125,37.641998291015625 38.284000396728516,37.641998291015625 38.284000396728516,37.641998291015625 C38.284000396728516,37.641998291015625 38.284000396728516,73.64199829101562 38.284000396728516,73.64199829101562 C38.284000396728516,73.64199829101562 104.28399658203125,73.64199829101562 104.28399658203125,73.64199829101562 C104.28399658203125,73.64199829101562 104.28399658203125,111.64199829101562 104.28399658203125,111.64199829101562 C104.28399658203125,111.64199829101562 38.284000396728516,111.64199829101562 38.284000396728516,111.64199829101562 C38.284000396728516,111.64199829101562 38.284000396728516,153.64199829101562 38.284000396728516,153.64199829101562 C38.284000396728516,153.64199829101562 114.28399658203125,153.64199829101562 114.28399658203125,153.64199829101562 C114.28399658203125,153.64199829101562 114.28399658203125,191.64199829101562 114.28399658203125,191.64199829101562 C114.28399658203125,191.64199829101562 38.284000396728516,191.64199829101562 38.284000396728516,191.64199829101562 C38.284000396728516,191.64199829101562 0.2840000092983246,191.64199829101562 0.2840000092983246,191.64199829101562 C0.2840000092983246,191.64199829101562 0.2840000092983246,153.64199829101562 0.2840000092983246,153.64199829101562 C0.2840000092983246,153.64199829101562 0.2840000092983246,111.64199829101562 0.2840000092983246,111.64199829101562 C0.2840000092983246,111.64199829101562 0.2840000092983246,73.64199829101562 0.2840000092983246,73.64199829101562 C0.2840000092983246,73.64199829101562 0.2840000092983246,37.641998291015625 0.2840000092983246,37.641998291015625 C0.2840000092983246,37.641998291015625 0.2840000092983246,-0.3580000102519989 0.2840000092983246,-0.3580000102519989 C0.2840000092983246,-0.3580000102519989 38.284000396728516,-0.3580000102519989 38.284000396728516,-0.3580000102519989" fill-opacity="1"></path><path fill="#ffffff" clip-rule="nonzero" d=" M124.28399658203125,-0.3580000102519989 C124.28399658203125,-0.3580000102519989 162.28399658203125,-0.3580000102519989 162.28399658203125,-0.3580000102519989 C162.28399658203125,-0.3580000102519989 216.2830047607422,112.63999938964844 216.2830047607422,112.63999938964844 C216.2830047607422,112.63999938964844 216.2830047607422,-0.3580000102519989 216.2830047607422,-0.3580000102519989 C216.2830047607422,-0.3580000102519989 254.2830047607422,-0.3580000102519989 254.2830047607422,-0.3580000102519989 C254.2830047607422,-0.3580000102519989 254.2830047607422,191.64199829101562 254.2830047607422,191.64199829101562 C254.2830047607422,191.64199829101562 216.28399658203125,191.64199829101562 216.28399658203125,191.64199829101562 C216.28399658203125,191.64199829101562 216.2830047607422,191.64199829101562 216.2830047607422,191.64199829101562 C216.2830047607422,191.64199829101562 216.2830047607422,191.63999938964844 216.2830047607422,191.63999938964844 C216.2830047607422,191.63999938964844 162.28399658203125,78.64199829101562 162.28399658203125,78.64199829101562 C162.28399658203125,78.64199829101562 162.28399658203125,191.64199829101562 162.28399658203125,191.64199829101562 C162.28399658203125,191.64199829101562 124.28399658203125,191.64199829101562 124.28399658203125,191.64199829101562 C124.28399658203125,191.64199829101562 124.28399658203125,-0.3580000102519989 124.28399658203125,-0.3580000102519989" fill-opacity="1"></path><path fill="#ffffff" clip-rule="nonzero" d=" M307.281005859375,-0.3580000102519989 C307.281005859375,-0.3580000102519989 262.2799987792969,-0.3580000102519989 262.2799987792969,-0.3580000102519989 C262.2799987792969,-0.3580000102519989 262.2799987792969,37.641998291015625 262.2799987792969,37.641998291015625 C262.2799987792969,37.641998291015625 307.281005859375,37.641998291015625 307.281005859375,37.641998291015625 C307.281005859375,37.641998291015625 307.281005859375,191.64199829101562 307.281005859375,191.64199829101562 C307.281005859375,191.64199829101562 345.281005859375,191.64199829101562 345.281005859375,191.64199829101562 C345.281005859375,191.64199829101562 345.281005859375,37.641998291015625 345.281005859375,37.641998291015625 C345.281005859375,37.641998291015625 390.2799987792969,37.641998291015625 390.2799987792969,37.641998291015625 C390.2799987792969,37.641998291015625 390.2799987792969,-0.3580000102519989 390.2799987792969,-0.3580000102519989 C390.2799987792969,-0.3580000102519989 345.281005859375,-0.3580000102519989 345.281005859375,-0.3580000102519989 C345.281005859375,-0.3580000102519989 307.281005859375,-0.3580000102519989 307.281005859375,-0.3580000102519989" fill-opacity="1"></path><path fill="#ffffff" clip-rule="nonzero" d=" M512.2839965820312,-0.3580000102519989 C512.2839965820312,-0.3580000102519989 436.28399658203125,-0.3580000102519989 436.28399658203125,-0.3580000102519989 C436.28399658203125,-0.3580000102519989 398.28399658203125,-0.3580000102519989 398.28399658203125,-0.3580000102519989 C398.28399658203125,-0.3580000102519989 398.28399658203125,37.641998291015625 398.28399658203125,37.641998291015625 C398.28399658203125,37.641998291015625 398.28399658203125,73.64199829101562 398.28399658203125,73.64199829101562 C398.28399658203125,73.64199829101562 398.28399658203125,111.64199829101562 398.28399658203125,111.64199829101562 C398.28399658203125,111.64199829101562 398.28399658203125,153.64199829101562 398.28399658203125,153.64199829101562 C398.28399658203125,153.64199829101562 398.28399658203125,191.64199829101562 398.28399658203125,191.64199829101562 C398.28399658203125,191.64199829101562 436.28399658203125,191.64199829101562 436.28399658203125,191.64199829101562 C436.28399658203125,191.64199829101562 512.2839965820312,191.64199829101562 512.2839965820312,191.64199829101562 C512.2839965820312,191.64199829101562 512.2839965820312,153.64199829101562 512.2839965820312,153.64199829101562 C512.2839965820312,153.64199829101562 436.28399658203125,153.64199829101562 436.28399658203125,153.64199829101562 C436.28399658203125,153.64199829101562 436.28399658203125,111.64199829101562 436.28399658203125,111.64199829101562 C436.28399658203125,111.64199829101562 502.28399658203125,111.64199829101562 502.28399658203125,111.64199829101562 C502.28399658203125,111.64199829101562 502.28399658203125,73.64199829101562 502.28399658203125,73.64199829101562 C502.28399658203125,73.64199829101562 436.28399658203125,73.64199829101562 436.28399658203125,73.64199829101562 C436.28399658203125,73.64199829101562 436.28399658203125,37.641998291015625 436.28399658203125,37.641998291015625 C436.28399658203125,37.641998291015625 512.2839965820312,37.641998291015625 512.2839965820312,37.641998291015625 C512.2839965820312,37.641998291015625 512.2839965820312,-0.3580000102519989 512.2839965820312,-0.3580000102519989" fill-opacity="1"></path><path fill="#ffffff" clip-rule="nonzero" d=" M520.2839965820312,-0.3580000102519989 C520.2839965820312,-0.3580000102519989 520.2839965820312,191.64199829101562 520.2839965820312,191.64199829101562 C520.2839965820312,191.64199829101562 558.2839965820312,191.64199829101562 558.2839965820312,191.64199829101562 C558.2839965820312,191.64199829101562 558.2839965820312,121.64199829101562 558.2839965820312,121.64199829101562 C558.2839965820312,121.64199829101562 581.7839965820312,121.64199829101562 581.7839965820312,121.64199829101562 C603.5850219726562,121.64199829101562 604.5850219726562,150.38299560546875 605.3099975585938,171.2469940185547 C605.6510009765625,181.0540008544922 605.9320068359375,189.1199951171875 608.2839965820312,191.64199829101562 C608.2839965820312,191.64199829101562 648.2839965820312,191.64199829101562 648.2839965820312,191.64199829101562 C648.2839965820312,191.64199829101562 648.2839965820312,189.01300048828125 648.2839965820312,189.01300048828125 C645.4810180664062,187.99200439453125 644.8679809570312,179.2689971923828 644.052001953125,167.65499877929688 C642.344970703125,143.3509979248047 639.7490234375,106.38800048828125 614.3300170898438,100.87300109863281 C614.3300170898438,100.87300109863281 614.3300170898438,100.34700012207031 614.3300170898438,100.34700012207031 C632.9819946289062,95.08799743652344 645.2839965820312,79.93599700927734 645.2839965820312,53.641998291015625 C645.2839965820312,19.459999084472656 624.573974609375,-0.3580000102519989 591.2119750976562,-0.3580000102519989 C591.2119750976562,-0.3580000102519989 520.2839965820312,-0.3580000102519989 520.2839965820312,-0.3580000102519989" fill-opacity="1"></path><path fill="#000000" clip-rule="nonzero" d=" M583.7839965820312,83.64199829101562 C583.7839965820312,83.64199829101562 558.2839965820312,83.64199829101562 558.2839965820312,83.64199829101562 C558.2839965820312,83.64199829101562 558.2839965820312,37.641998291015625 558.2839965820312,37.641998291015625 C558.2839965820312,37.641998291015625 583.7839965820312,37.641998291015625 583.7839965820312,37.641998291015625 C599.02001953125,37.641998291015625 607.2839965820312,45.36600112915039 607.2839965820312,61.141998291015625 C607.2839965820312,76.91799926757812 599.02001953125,83.64199829101562 583.7839965820312,83.64199829101562" fill-opacity="1"></path></mask><clipPath id="__lottie_element_363"><path d="M0,0 L5000,0 L5000,496 L0,496z"></path></clipPath><mask id="__lottie_element_352_3" mask-type="luminance"><use xlink:href="#__lottie_element_352"></use></mask><clipPath id="__lottie_element_464"><path d="M0,0 L5000,0 L5000,496 L0,496z"></path></clipPath><g id="__lottie_element_467"><g clip-path="url(#__lottie_element_468)" style="display: block;" transform="matrix(1,0,0,1,0,0)" opacity="1"><g style="display: block;" transform="matrix(1,0,0,0.9900000095367432,0,0.5)" opacity="1"><rect width="5000" height="500" fill="#ffffff"></rect></g><g mask="url(#__lottie_element_475)" style="display: block;" transform="matrix(2.6029999256134033,0,0,2.6029999256134033,1032.9410400390625,-2.8304998874664307)" opacity="1"><rect width="3000" height="536" fill="#000000"></rect></g><g mask="url(#__lottie_element_472)" style="display: block;" transform="matrix(2.6029999256134033,0,0,2.6029999256134033,1014.2030029296875,-1.5290000438690186)" opacity="1"><rect width="3000" height="536" fill="#000000"></rect></g></g></g><clipPath id="__lottie_element_468"><path d="M0,0 L5000,0 L5000,496 L0,496z"></path></clipPath><mask id="__lottie_element_472"><path fill="#ffffff" clip-rule="nonzero" d=" M38.284000396728516,-0.3580000102519989 C38.284000396728516,-0.3580000102519989 114.28399658203125,-0.3580000102519989 114.28399658203125,-0.3580000102519989 C114.28399658203125,-0.3580000102519989 114.28399658203125,37.641998291015625 114.28399658203125,37.641998291015625 C114.28399658203125,37.641998291015625 38.284000396728516,37.641998291015625 38.284000396728516,37.641998291015625 C38.284000396728516,37.641998291015625 38.284000396728516,73.64199829101562 38.284000396728516,73.64199829101562 C38.284000396728516,73.64199829101562 104.28399658203125,73.64199829101562 104.28399658203125,73.64199829101562 C104.28399658203125,73.64199829101562 104.28399658203125,111.64199829101562 104.28399658203125,111.64199829101562 C104.28399658203125,111.64199829101562 38.284000396728516,111.64199829101562 38.284000396728516,111.64199829101562 C38.284000396728516,111.64199829101562 38.284000396728516,153.64199829101562 38.284000396728516,153.64199829101562 C38.284000396728516,153.64199829101562 114.28399658203125,153.64199829101562 114.28399658203125,153.64199829101562 C114.28399658203125,153.64199829101562 114.28399658203125,191.64199829101562 114.28399658203125,191.64199829101562 C114.28399658203125,191.64199829101562 38.284000396728516,191.64199829101562 38.284000396728516,191.64199829101562 C38.284000396728516,191.64199829101562 0.2840000092983246,191.64199829101562 0.2840000092983246,191.64199829101562 C0.2840000092983246,191.64199829101562 0.2840000092983246,153.64199829101562 0.2840000092983246,153.64199829101562 C0.2840000092983246,153.64199829101562 0.2840000092983246,111.64199829101562 0.2840000092983246,111.64199829101562 C0.2840000092983246,111.64199829101562 0.2840000092983246,73.64199829101562 0.2840000092983246,73.64199829101562 C0.2840000092983246,73.64199829101562 0.2840000092983246,37.641998291015625 0.2840000092983246,37.641998291015625 C0.2840000092983246,37.641998291015625 0.2840000092983246,-0.3580000102519989 0.2840000092983246,-0.3580000102519989 C0.2840000092983246,-0.3580000102519989 38.284000396728516,-0.3580000102519989 38.284000396728516,-0.3580000102519989" fill-opacity="1"></path><path fill="#ffffff" clip-rule="nonzero" d=" M124.28399658203125,-0.3580000102519989 C124.28399658203125,-0.3580000102519989 162.28399658203125,-0.3580000102519989 162.28399658203125,-0.3580000102519989 C162.28399658203125,-0.3580000102519989 216.2830047607422,112.63999938964844 216.2830047607422,112.63999938964844 C216.2830047607422,112.63999938964844 216.2830047607422,-0.3580000102519989 216.2830047607422,-0.3580000102519989 C216.2830047607422,-0.3580000102519989 254.2830047607422,-0.3580000102519989 254.2830047607422,-0.3580000102519989 C254.2830047607422,-0.3580000102519989 254.2830047607422,191.64199829101562 254.2830047607422,191.64199829101562 C254.2830047607422,191.64199829101562 216.28399658203125,191.64199829101562 216.28399658203125,191.64199829101562 C216.28399658203125,191.64199829101562 216.2830047607422,191.64199829101562 216.2830047607422,191.64199829101562 C216.2830047607422,191.64199829101562 216.2830047607422,191.63999938964844 216.2830047607422,191.63999938964844 C216.2830047607422,191.63999938964844 162.28399658203125,78.64199829101562 162.28399658203125,78.64199829101562 C162.28399658203125,78.64199829101562 162.28399658203125,191.64199829101562 162.28399658203125,191.64199829101562 C162.28399658203125,191.64199829101562 124.28399658203125,191.64199829101562 124.28399658203125,191.64199829101562 C124.28399658203125,191.64199829101562 124.28399658203125,-0.3580000102519989 124.28399658203125,-0.3580000102519989" fill-opacity="1"></path><path fill="#ffffff" clip-rule="nonzero" d=" M307.281005859375,-0.3580000102519989 C307.281005859375,-0.3580000102519989 262.2799987792969,-0.3580000102519989 262.2799987792969,-0.3580000102519989 C262.2799987792969,-0.3580000102519989 262.2799987792969,37.641998291015625 262.2799987792969,37.641998291015625 C262.2799987792969,37.641998291015625 307.281005859375,37.641998291015625 307.281005859375,37.641998291015625 C307.281005859375,37.641998291015625 307.281005859375,191.64199829101562 307.281005859375,191.64199829101562 C307.281005859375,191.64199829101562 345.281005859375,191.64199829101562 345.281005859375,191.64199829101562 C345.281005859375,191.64199829101562 345.281005859375,37.641998291015625 345.281005859375,37.641998291015625 C345.281005859375,37.641998291015625 390.2799987792969,37.641998291015625 390.2799987792969,37.641998291015625 C390.2799987792969,37.641998291015625 390.2799987792969,-0.3580000102519989 390.2799987792969,-0.3580000102519989 C390.2799987792969,-0.3580000102519989 345.281005859375,-0.3580000102519989 345.281005859375,-0.3580000102519989 C345.281005859375,-0.3580000102519989 307.281005859375,-0.3580000102519989 307.281005859375,-0.3580000102519989" fill-opacity="1"></path><path fill="#ffffff" clip-rule="nonzero" d=" M512.2839965820312,-0.3580000102519989 C512.2839965820312,-0.3580000102519989 436.28399658203125,-0.3580000102519989 436.28399658203125,-0.3580000102519989 C436.28399658203125,-0.3580000102519989 398.28399658203125,-0.3580000102519989 398.28399658203125,-0.3580000102519989 C398.28399658203125,-0.3580000102519989 398.28399658203125,37.641998291015625 398.28399658203125,37.641998291015625 C398.28399658203125,37.641998291015625 398.28399658203125,73.64199829101562 398.28399658203125,73.64199829101562 C398.28399658203125,73.64199829101562 398.28399658203125,111.64199829101562 398.28399658203125,111.64199829101562 C398.28399658203125,111.64199829101562 398.28399658203125,153.64199829101562 398.28399658203125,153.64199829101562 C398.28399658203125,153.64199829101562 398.28399658203125,191.64199829101562 398.28399658203125,191.64199829101562 C398.28399658203125,191.64199829101562 436.28399658203125,191.64199829101562 436.28399658203125,191.64199829101562 C436.28399658203125,191.64199829101562 512.2839965820312,191.64199829101562 512.2839965820312,191.64199829101562 C512.2839965820312,191.64199829101562 512.2839965820312,153.64199829101562 512.2839965820312,153.64199829101562 C512.2839965820312,153.64199829101562 436.28399658203125,153.64199829101562 436.28399658203125,153.64199829101562 C436.28399658203125,153.64199829101562 436.28399658203125,111.64199829101562 436.28399658203125,111.64199829101562 C436.28399658203125,111.64199829101562 502.28399658203125,111.64199829101562 502.28399658203125,111.64199829101562 C502.28399658203125,111.64199829101562 502.28399658203125,73.64199829101562 502.28399658203125,73.64199829101562 C502.28399658203125,73.64199829101562 436.28399658203125,73.64199829101562 436.28399658203125,73.64199829101562 C436.28399658203125,73.64199829101562 436.28399658203125,37.641998291015625 436.28399658203125,37.641998291015625 C436.28399658203125,37.641998291015625 512.2839965820312,37.641998291015625 512.2839965820312,37.641998291015625 C512.2839965820312,37.641998291015625 512.2839965820312,-0.3580000102519989 512.2839965820312,-0.3580000102519989" fill-opacity="1"></path><path fill="#ffffff" clip-rule="nonzero" d=" M520.2839965820312,-0.3580000102519989 C520.2839965820312,-0.3580000102519989 520.2839965820312,191.64199829101562 520.2839965820312,191.64199829101562 C520.2839965820312,191.64199829101562 558.2839965820312,191.64199829101562 558.2839965820312,191.64199829101562 C558.2839965820312,191.64199829101562 558.2839965820312,121.64199829101562 558.2839965820312,121.64199829101562 C558.2839965820312,121.64199829101562 581.7839965820312,121.64199829101562 581.7839965820312,121.64199829101562 C603.5850219726562,121.64199829101562 604.5850219726562,150.38299560546875 605.3099975585938,171.2469940185547 C605.6510009765625,181.0540008544922 605.9320068359375,189.1199951171875 608.2839965820312,191.64199829101562 C608.2839965820312,191.64199829101562 648.2839965820312,191.64199829101562 648.2839965820312,191.64199829101562 C648.2839965820312,191.64199829101562 648.2839965820312,189.01300048828125 648.2839965820312,189.01300048828125 C645.4810180664062,187.99200439453125 644.8679809570312,179.2689971923828 644.052001953125,167.65499877929688 C642.344970703125,143.3509979248047 639.7490234375,106.38800048828125 614.3300170898438,100.87300109863281 C614.3300170898438,100.87300109863281 614.3300170898438,100.34700012207031 614.3300170898438,100.34700012207031 C632.9819946289062,95.08799743652344 645.2839965820312,79.93599700927734 645.2839965820312,53.641998291015625 C645.2839965820312,19.459999084472656 624.573974609375,-0.3580000102519989 591.2119750976562,-0.3580000102519989 C591.2119750976562,-0.3580000102519989 520.2839965820312,-0.3580000102519989 520.2839965820312,-0.3580000102519989" fill-opacity="1"></path><path fill="#000000" clip-rule="nonzero" d=" M583.7839965820312,83.64199829101562 C583.7839965820312,83.64199829101562 558.2839965820312,83.64199829101562 558.2839965820312,83.64199829101562 C558.2839965820312,83.64199829101562 558.2839965820312,37.641998291015625 558.2839965820312,37.641998291015625 C558.2839965820312,37.641998291015625 583.7839965820312,37.641998291015625 583.7839965820312,37.641998291015625 C599.02001953125,37.641998291015625 607.2839965820312,45.36600112915039 607.2839965820312,61.141998291015625 C607.2839965820312,76.91799926757812 599.02001953125,83.64199829101562 583.7839965820312,83.64199829101562" fill-opacity="1"></path></mask><mask id="__lottie_element_475"><path fill="#ffffff" clip-rule="nonzero" d=" M38.284000396728516,-0.3580000102519989 C38.284000396728516,-0.3580000102519989 114.28399658203125,-0.3580000102519989 114.28399658203125,-0.3580000102519989 C114.28399658203125,-0.3580000102519989 114.28399658203125,37.641998291015625 114.28399658203125,37.641998291015625 C114.28399658203125,37.641998291015625 38.284000396728516,37.641998291015625 38.284000396728516,37.641998291015625 C38.284000396728516,37.641998291015625 38.284000396728516,73.64199829101562 38.284000396728516,73.64199829101562 C38.284000396728516,73.64199829101562 104.28399658203125,73.64199829101562 104.28399658203125,73.64199829101562 C104.28399658203125,73.64199829101562 104.28399658203125,111.64199829101562 104.28399658203125,111.64199829101562 C104.28399658203125,111.64199829101562 38.284000396728516,111.64199829101562 38.284000396728516,111.64199829101562 C38.284000396728516,111.64199829101562 38.284000396728516,153.64199829101562 38.284000396728516,153.64199829101562 C38.284000396728516,153.64199829101562 114.28399658203125,153.64199829101562 114.28399658203125,153.64199829101562 C114.28399658203125,153.64199829101562 114.28399658203125,191.64199829101562 114.28399658203125,191.64199829101562 C114.28399658203125,191.64199829101562 38.284000396728516,191.64199829101562 38.284000396728516,191.64199829101562 C38.284000396728516,191.64199829101562 0.2840000092983246,191.64199829101562 0.2840000092983246,191.64199829101562 C0.2840000092983246,191.64199829101562 0.2840000092983246,153.64199829101562 0.2840000092983246,153.64199829101562 C0.2840000092983246,153.64199829101562 0.2840000092983246,111.64199829101562 0.2840000092983246,111.64199829101562 C0.2840000092983246,111.64199829101562 0.2840000092983246,73.64199829101562 0.2840000092983246,73.64199829101562 C0.2840000092983246,73.64199829101562 0.2840000092983246,37.641998291015625 0.2840000092983246,37.641998291015625 C0.2840000092983246,37.641998291015625 0.2840000092983246,-0.3580000102519989 0.2840000092983246,-0.3580000102519989 C0.2840000092983246,-0.3580000102519989 38.284000396728516,-0.3580000102519989 38.284000396728516,-0.3580000102519989" fill-opacity="1"></path><path fill="#ffffff" clip-rule="nonzero" d=" M124.28399658203125,-0.3580000102519989 C124.28399658203125,-0.3580000102519989 162.28399658203125,-0.3580000102519989 162.28399658203125,-0.3580000102519989 C162.28399658203125,-0.3580000102519989 216.2830047607422,112.63999938964844 216.2830047607422,112.63999938964844 C216.2830047607422,112.63999938964844 216.2830047607422,-0.3580000102519989 216.2830047607422,-0.3580000102519989 C216.2830047607422,-0.3580000102519989 254.2830047607422,-0.3580000102519989 254.2830047607422,-0.3580000102519989 C254.2830047607422,-0.3580000102519989 254.2830047607422,191.64199829101562 254.2830047607422,191.64199829101562 C254.2830047607422,191.64199829101562 216.28399658203125,191.64199829101562 216.28399658203125,191.64199829101562 C216.28399658203125,191.64199829101562 216.2830047607422,191.64199829101562 216.2830047607422,191.64199829101562 C216.2830047607422,191.64199829101562 216.2830047607422,191.63999938964844 216.2830047607422,191.63999938964844 C216.2830047607422,191.63999938964844 162.28399658203125,78.64199829101562 162.28399658203125,78.64199829101562 C162.28399658203125,78.64199829101562 162.28399658203125,191.64199829101562 162.28399658203125,191.64199829101562 C162.28399658203125,191.64199829101562 124.28399658203125,191.64199829101562 124.28399658203125,191.64199829101562 C124.28399658203125,191.64199829101562 124.28399658203125,-0.3580000102519989 124.28399658203125,-0.3580000102519989" fill-opacity="1"></path><path fill="#ffffff" clip-rule="nonzero" d=" M307.281005859375,-0.3580000102519989 C307.281005859375,-0.3580000102519989 262.2799987792969,-0.3580000102519989 262.2799987792969,-0.3580000102519989 C262.2799987792969,-0.3580000102519989 262.2799987792969,37.641998291015625 262.2799987792969,37.641998291015625 C262.2799987792969,37.641998291015625 307.281005859375,37.641998291015625 307.281005859375,37.641998291015625 C307.281005859375,37.641998291015625 307.281005859375,191.64199829101562 307.281005859375,191.64199829101562 C307.281005859375,191.64199829101562 345.281005859375,191.64199829101562 345.281005859375,191.64199829101562 C345.281005859375,191.64199829101562 345.281005859375,37.641998291015625 345.281005859375,37.641998291015625 C345.281005859375,37.641998291015625 390.2799987792969,37.641998291015625 390.2799987792969,37.641998291015625 C390.2799987792969,37.641998291015625 390.2799987792969,-0.3580000102519989 390.2799987792969,-0.3580000102519989 C390.2799987792969,-0.3580000102519989 345.281005859375,-0.3580000102519989 345.281005859375,-0.3580000102519989 C345.281005859375,-0.3580000102519989 307.281005859375,-0.3580000102519989 307.281005859375,-0.3580000102519989" fill-opacity="1"></path><path fill="#ffffff" clip-rule="nonzero" d=" M512.2839965820312,-0.3580000102519989 C512.2839965820312,-0.3580000102519989 436.28399658203125,-0.3580000102519989 436.28399658203125,-0.3580000102519989 C436.28399658203125,-0.3580000102519989 398.28399658203125,-0.3580000102519989 398.28399658203125,-0.3580000102519989 C398.28399658203125,-0.3580000102519989 398.28399658203125,37.641998291015625 398.28399658203125,37.641998291015625 C398.28399658203125,37.641998291015625 398.28399658203125,73.64199829101562 398.28399658203125,73.64199829101562 C398.28399658203125,73.64199829101562 398.28399658203125,111.64199829101562 398.28399658203125,111.64199829101562 C398.28399658203125,111.64199829101562 398.28399658203125,153.64199829101562 398.28399658203125,153.64199829101562 C398.28399658203125,153.64199829101562 398.28399658203125,191.64199829101562 398.28399658203125,191.64199829101562 C398.28399658203125,191.64199829101562 436.28399658203125,191.64199829101562 436.28399658203125,191.64199829101562 C436.28399658203125,191.64199829101562 512.2839965820312,191.64199829101562 512.2839965820312,191.64199829101562 C512.2839965820312,191.64199829101562 512.2839965820312,153.64199829101562 512.2839965820312,153.64199829101562 C512.2839965820312,153.64199829101562 436.28399658203125,153.64199829101562 436.28399658203125,153.64199829101562 C436.28399658203125,153.64199829101562 436.28399658203125,111.64199829101562 436.28399658203125,111.64199829101562 C436.28399658203125,111.64199829101562 502.28399658203125,111.64199829101562 502.28399658203125,111.64199829101562 C502.28399658203125,111.64199829101562 502.28399658203125,73.64199829101562 502.28399658203125,73.64199829101562 C502.28399658203125,73.64199829101562 436.28399658203125,73.64199829101562 436.28399658203125,73.64199829101562 C436.28399658203125,73.64199829101562 436.28399658203125,37.641998291015625 436.28399658203125,37.641998291015625 C436.28399658203125,37.641998291015625 512.2839965820312,37.641998291015625 512.2839965820312,37.641998291015625 C512.2839965820312,37.641998291015625 512.2839965820312,-0.3580000102519989 512.2839965820312,-0.3580000102519989" fill-opacity="1"></path><path fill="#ffffff" clip-rule="nonzero" d=" M520.2839965820312,-0.3580000102519989 C520.2839965820312,-0.3580000102519989 520.2839965820312,191.64199829101562 520.2839965820312,191.64199829101562 C520.2839965820312,191.64199829101562 558.2839965820312,191.64199829101562 558.2839965820312,191.64199829101562 C558.2839965820312,191.64199829101562 558.2839965820312,121.64199829101562 558.2839965820312,121.64199829101562 C558.2839965820312,121.64199829101562 581.7839965820312,121.64199829101562 581.7839965820312,121.64199829101562 C603.5850219726562,121.64199829101562 604.5850219726562,150.38299560546875 605.3099975585938,171.2469940185547 C605.6510009765625,181.0540008544922 605.9320068359375,189.1199951171875 608.2839965820312,191.64199829101562 C608.2839965820312,191.64199829101562 648.2839965820312,191.64199829101562 648.2839965820312,191.64199829101562 C648.2839965820312,191.64199829101562 648.2839965820312,189.01300048828125 648.2839965820312,189.01300048828125 C645.4810180664062,187.99200439453125 644.8679809570312,179.2689971923828 644.052001953125,167.65499877929688 C642.344970703125,143.3509979248047 639.7490234375,106.38800048828125 614.3300170898438,100.87300109863281 C614.3300170898438,100.87300109863281 614.3300170898438,100.34700012207031 614.3300170898438,100.34700012207031 C632.9819946289062,95.08799743652344 645.2839965820312,79.93599700927734 645.2839965820312,53.641998291015625 C645.2839965820312,19.459999084472656 624.573974609375,-0.3580000102519989 591.2119750976562,-0.3580000102519989 C591.2119750976562,-0.3580000102519989 520.2839965820312,-0.3580000102519989 520.2839965820312,-0.3580000102519989" fill-opacity="1"></path><path fill="#000000" clip-rule="nonzero" d=" M583.7839965820312,83.64199829101562 C583.7839965820312,83.64199829101562 558.2839965820312,83.64199829101562 558.2839965820312,83.64199829101562 C558.2839965820312,83.64199829101562 558.2839965820312,37.641998291015625 558.2839965820312,37.641998291015625 C558.2839965820312,37.641998291015625 583.7839965820312,37.641998291015625 583.7839965820312,37.641998291015625 C599.02001953125,37.641998291015625 607.2839965820312,45.36600112915039 607.2839965820312,61.141998291015625 C607.2839965820312,76.91799926757812 599.02001953125,83.64199829101562 583.7839965820312,83.64199829101562" fill-opacity="1"></path></mask><clipPath id="__lottie_element_481"><path d="M0,0 L5000,0 L5000,496 L0,496z"></path></clipPath><mask id="__lottie_element_467_3" mask-type="luminance"><use xlink:href="#__lottie_element_467"></use></mask><clipPath id="__lottie_element_582"><path d="M0,0 L5000,0 L5000,496 L0,496z"></path></clipPath><filter id="__lottie_element_682" filterUnits="objectBoundingBox" x="0%" y="0%" width="100%" height="100%"><feComponentTransfer in="SourceGraphic"><feFuncA type="table" tableValues="1.0 0.0"></feFuncA></feComponentTransfer></filter><mask id="__lottie_element_3_2" mask-type="alpha"><g filter="url(#__lottie_element_682)"><rect width="2048" height="248" x="0" y="0" fill="#ffffff" opacity="0"></rect><use xlink:href="#__lottie_element_3"></use></g></mask></defs><g clip-path="url(#__lottie_element_2)"><g mask="url(#__lottie_element_3_2)" style="display: block;"><g clip-path="url(#__lottie_element_7)" transform="matrix(0.5,0,0,0.5,0,0)" opacity="1"><g clip-path="url(#__lottie_element_464)" style="display: block;" transform="matrix(1,0,0,1,0,0)" opacity="1"><g mask="url(#__lottie_element_467_3)" style="display: block;"><g clip-path="url(#__lottie_element_481)" transform="matrix(1,0,0,1,0,0)" opacity="1"><g style="display: block;" transform="matrix(1,0,0,3.7810001373291016,2500,1.8905000686645508)" opacity="1"><g opacity="1" transform="matrix(1,0,0,1,0,0)"><path fill="rgb(0,0,0)" fill-opacity="1" d=" M2500,-0.5 C2500,-0.5 2500,0.5 2500,0.5 C2500,0.5 -2500,0.5 -2500,0.5 C-2500,0.5 -2500,-0.5 -2500,-0.5 C-2500,-0.5 2500,-0.5 2500,-0.5z"></path></g></g><g style="display: block;" transform="matrix(1,0,0,3.6759374141693115,2500,17.724014282226562)" opacity="1"><g opacity="1" transform="matrix(1,0,0,1,0,0)"><path fill="rgb(0,0,0)" fill-opacity="1" d=" M2500,-0.5 C2500,-0.5 2500,0.5 2500,0.5 C2500,0.5 -2500,0.5 -2500,0.5 C-2500,0.5 -2500,-0.5 -2500,-0.5 C-2500,-0.5 2500,-0.5 2500,-0.5z"></path></g></g><g style="display: block;" transform="matrix(1,0,0,3.5708749294281006,2500,33.56404495239258)" opacity="1"><g opacity="1" transform="matrix(1,0,0,1,0,0)"><path fill="rgb(0,0,0)" fill-opacity="1" d=" M2500,-0.5 C2500,-0.5 2500,0.5 2500,0.5 C2500,0.5 -2500,0.5 -2500,0.5 C-2500,0.5 -2500,-0.5 -2500,-0.5 C-2500,-0.5 2500,-0.5 2500,-0.5z"></path></g></g><g style="display: block;" transform="matrix(1,0,0,3.4658124446868896,2500,49.40711975097656)" opacity="1"><g opacity="1" transform="matrix(1,0,0,1,0,0)"><path fill="rgb(0,0,0)" fill-opacity="1" d=" M2500,-0.5 C2500,-0.5 2500,0.5 2500,0.5 C2500,0.5 -2500,0.5 -2500,0.5 C-2500,0.5 -2500,-0.5 -2500,-0.5 C-2500,-0.5 2500,-0.5 2500,-0.5z"></path></g></g><g style="display: block;" transform="matrix(1,0,0,3.360750198364258,2500,65.26028442382812)" opacity="1"><g opacity="1" transform="matrix(1,0,0,1,0,0)"><path fill="rgb(0,0,0)" fill-opacity="1" d=" M2500,-0.5 C2500,-0.5 2500,0.5 2500,0.5 C2500,0.5 -2500,0.5 -2500,0.5 C-2500,0.5 -2500,-0.5 -2500,-0.5 C-2500,-0.5 2500,-0.5 2500,-0.5z"></path></g></g><g style="display: block;" transform="matrix(1,0,0,3.2556874752044678,2500,81.11995697021484)" opacity="1"><g opacity="1" transform="matrix(1,0,0,1,0,0)"><path fill="rgb(0,0,0)" fill-opacity="1" d=" M2500,-0.5 C2500,-0.5 2500,0.5 2500,0.5 C2500,0.5 -2500,0.5 -2500,0.5 C-2500,0.5 -2500,-0.5 -2500,-0.5 C-2500,-0.5 2500,-0.5 2500,-0.5z"></path></g></g><g style="display: block;" transform="matrix(1,0,0,3.150624990463257,2500,96.98299407958984)" opacity="1"><g opacity="1" transform="matrix(1,0,0,1,0,0)"><path fill="rgb(0,0,0)" fill-opacity="1" d=" M2500,-0.5 C2500,-0.5 2500,0.5 2500,0.5 C2500,0.5 -2500,0.5 -2500,0.5 C-2500,0.5 -2500,-0.5 -2500,-0.5 C-2500,-0.5 2500,-0.5 2500,-0.5z"></path></g></g><g style="display: block;" transform="matrix(1,0,0,3.045562505722046,2500,112.85580444335938)" opacity="1"><g opacity="1" transform="matrix(1,0,0,1,0,0)"><path fill="rgb(0,0,0)" fill-opacity="1" d=" M2500,-0.5 C2500,-0.5 2500,0.5 2500,0.5 C2500,0.5 -2500,0.5 -2500,0.5 C-2500,0.5 -2500,-0.5 -2500,-0.5 C-2500,-0.5 2500,-0.5 2500,-0.5z"></path></g></g><g style="display: block;" transform="matrix(1,0,0,2.940499782562256,2500,128.73512268066406)" opacity="1"><g opacity="1" transform="matrix(1,0,0,1,0,0)"><path fill="rgb(0,0,0)" fill-opacity="1" d=" M2500,-0.5 C2500,-0.5 2500,0.5 2500,0.5 C2500,0.5 -2500,0.5 -2500,0.5 C-2500,0.5 -2500,-0.5 -2500,-0.5 C-2500,-0.5 2500,-0.5 2500,-0.5z"></path></g></g><g style="display: block;" transform="matrix(1,0,0,2.835437536239624,2500,144.62095642089844)" opacity="1"><g opacity="1" transform="matrix(1,0,0,1,0,0)"><path fill="rgb(0,0,0)" fill-opacity="1" d=" M2500,-0.5 C2500,-0.5 2500,0.5 2500,0.5 C2500,0.5 -2500,0.5 -2500,0.5 C-2500,0.5 -2500,-0.5 -2500,-0.5 C-2500,-0.5 2500,-0.5 2500,-0.5z"></path></g></g><g style="display: block;" transform="matrix(1,0,0,2.730375051498413,2500,160.5133056640625)" opacity="1"><g opacity="1" transform="matrix(1,0,0,1,0,0)"><path fill="rgb(0,0,0)" fill-opacity="1" d=" M2500,-0.5 C2500,-0.5 2500,0.5 2500,0.5 C2500,0.5 -2500,0.5 -2500,0.5 C-2500,0.5 -2500,-0.5 -2500,-0.5 C-2500,-0.5 2500,-0.5 2500,-0.5z"></path></g></g><g style="display: block;" transform="matrix(1,0,0,2.625312566757202,2500,176.4095458984375)" opacity="1"><g opacity="1" transform="matrix(1,0,0,1,0,0)"><path fill="rgb(0,0,0)" fill-opacity="1" d=" M2500,-0.5 C2500,-0.5 2500,0.5 2500,0.5 C2500,0.5 -2500,0.5 -2500,0.5 C-2500,0.5 -2500,-0.5 -2500,-0.5 C-2500,-0.5 2500,-0.5 2500,-0.5z"></path></g></g><g style="display: block;" transform="matrix(1,0,0,2.520249843597412,2500,192.31503295898438)" opacity="1"><g opacity="1" transform="matrix(1,0,0,1,0,0)"><path fill="rgb(0,0,0)" fill-opacity="1" d=" M2500,-0.5 C2500,-0.5 2500,0.5 2500,0.5 C2500,0.5 -2500,0.5 -2500,0.5 C-2500,0.5 -2500,-0.5 -2500,-0.5 C-2500,-0.5 2500,-0.5 2500,-0.5z"></path></g></g><g style="display: block;" transform="matrix(1,0,0,2.4151875972747803,2500,208.22702026367188)" opacity="1"><g opacity="1" transform="matrix(1,0,0,1,0,0)"><path fill="rgb(0,0,0)" fill-opacity="1" d=" M2500,-0.5 C2500,-0.5 2500,0.5 2500,0.5 C2500,0.5 -2500,0.5 -2500,0.5 C-2500,0.5 -2500,-0.5 -2500,-0.5 C-2500,-0.5 2500,-0.5 2500,-0.5z"></path></g></g><g style="display: block;" transform="matrix(1,0,0,2.3101248741149902,2500,224.1432342529297)" opacity="1"><g opacity="1" transform="matrix(1,0,0,1,0,0)"><path fill="rgb(0,0,0)" fill-opacity="1" d=" M2500,-0.5 C2500,-0.5 2500,0.5 2500,0.5 C2500,0.5 -2500,0.5 -2500,0.5 C-2500,0.5 -2500,-0.5 -2500,-0.5 C-2500,-0.5 2500,-0.5 2500,-0.5z"></path></g></g><g style="display: block;" transform="matrix(1,0,0,2.2050626277923584,2500,240.068359375)" opacity="1"><g opacity="1" transform="matrix(1,0,0,1,0,0)"><path fill="rgb(0,0,0)" fill-opacity="1" d=" M2500,-0.5 C2500,-0.5 2500,0.5 2500,0.5 C2500,0.5 -2500,0.5 -2500,0.5 C-2500,0.5 -2500,-0.5 -2500,-0.5 C-2500,-0.5 2500,-0.5 2500,-0.5z"></path></g></g><g style="display: block;" transform="matrix(1,0,0,2.0999999046325684,2500,256)" opacity="1"><g opacity="1" transform="matrix(1,0,0,1,0,0)"><path fill="rgb(0,0,0)" fill-opacity="1" d=" M2500,-0.5 C2500,-0.5 2500,0.5 2500,0.5 C2500,0.5 -2500,0.5 -2500,0.5 C-2500,0.5 -2500,-0.5 -2500,-0.5 C-2500,-0.5 2500,-0.5 2500,-0.5z"></path></g></g><g style="display: block;" transform="matrix(1,0,0,1.9949374198913574,2500,271.93817138671875)" opacity="1"><g opacity="1" transform="matrix(1,0,0,1,0,0)"><path fill="rgb(0,0,0)" fill-opacity="1" d=" M2500,-0.5 C2500,-0.5 2500,0.5 2500,0.5 C2500,0.5 -2500,0.5 -2500,0.5 C-2500,0.5 -2500,-0.5 -2500,-0.5 C-2500,-0.5 2500,-0.5 2500,-0.5z"></path></g></g><g style="display: block;" transform="matrix(1,0,0,1.889875054359436,2500,287.8828125)" opacity="1"><g opacity="1" transform="matrix(1,0,0,1,0,0)"><path fill="rgb(0,0,0)" fill-opacity="1" d=" M2500,-0.5 C2500,-0.5 2500,0.5 2500,0.5 C2500,0.5 -2500,0.5 -2500,0.5 C-2500,0.5 -2500,-0.5 -2500,-0.5 C-2500,-0.5 2500,-0.5 2500,-0.5z"></path></g></g><g style="display: block;" transform="matrix(1,0,0,1.7848124504089355,2500,303.83221435546875)" opacity="1"><g opacity="1" transform="matrix(1,0,0,1,0,0)"><path fill="rgb(0,0,0)" fill-opacity="1" d=" M2500,-0.5 C2500,-0.5 2500,0.5 2500,0.5 C2500,0.5 -2500,0.5 -2500,0.5 C-2500,0.5 -2500,-0.5 -2500,-0.5 C-2500,-0.5 2500,-0.5 2500,-0.5z"></path></g></g><g style="display: block;" transform="matrix(1,0,0,1.6797500848770142,2500,319.7900390625)" opacity="1"><g opacity="1" transform="matrix(1,0,0,1,0,0)"><path fill="rgb(0,0,0)" fill-opacity="1" d=" M2500,-0.5 C2500,-0.5 2500,0.5 2500,0.5 C2500,0.5 -2500,0.5 -2500,0.5 C-2500,0.5 -2500,-0.5 -2500,-0.5 C-2500,-0.5 2500,-0.5 2500,-0.5z"></path></g></g><g style="display: block;" transform="matrix(1,0,0,1.5746874809265137,2500,335.75433349609375)" opacity="1"><g opacity="1" transform="matrix(1,0,0,1,0,0)"><path fill="rgb(0,0,0)" fill-opacity="1" d=" M2500,-0.5 C2500,-0.5 2500,0.5 2500,0.5 C2500,0.5 -2500,0.5 -2500,0.5 C-2500,0.5 -2500,-0.5 -2500,-0.5 C-2500,-0.5 2500,-0.5 2500,-0.5z"></path></g></g><g style="display: block;" transform="matrix(1,0,0,1.4696249961853027,2500,351.7237243652344)" opacity="1"><g opacity="1" transform="matrix(1,0,0,1,0,0)"><path fill="rgb(0,0,0)" fill-opacity="1" d=" M2500,-0.5 C2500,-0.5 2500,0.5 2500,0.5 C2500,0.5 -2500,0.5 -2500,0.5 C-2500,0.5 -2500,-0.5 -2500,-0.5 C-2500,-0.5 2500,-0.5 2500,-0.5z"></path></g></g><g style="display: block;" transform="matrix(1,0,0,1.3645625114440918,2500,367.701171875)" opacity="1"><g opacity="1" transform="matrix(1,0,0,1,0,0)"><path fill="rgb(0,0,0)" fill-opacity="1" d=" M2500,-0.5 C2500,-0.5 2500,0.5 2500,0.5 C2500,0.5 -2500,0.5 -2500,0.5 C-2500,0.5 -2500,-0.5 -2500,-0.5 C-2500,-0.5 2500,-0.5 2500,-0.5z"></path></g></g><g style="display: block;" transform="matrix(1,0,0,1.2595000267028809,2500,383.68511962890625)" opacity="1"><g opacity="1" transform="matrix(1,0,0,1,0,0)"><path fill="rgb(0,0,0)" fill-opacity="1" d=" M2500,-0.5 C2500,-0.5 2500,0.5 2500,0.5 C2500,0.5 -2500,0.5 -2500,0.5 C-2500,0.5 -2500,-0.5 -2500,-0.5 C-2500,-0.5 2500,-0.5 2500,-0.5z"></path></g></g><g style="display: block;" transform="matrix(1,0,0,1.15443754196167,2500,399.67559814453125)" opacity="1"><g opacity="1" transform="matrix(1,0,0,1,0,0)"><path fill="rgb(0,0,0)" fill-opacity="1" d=" M2500,-0.5 C2500,-0.5 2500,0.5 2500,0.5 C2500,0.5 -2500,0.5 -2500,0.5 C-2500,0.5 -2500,-0.5 -2500,-0.5 C-2500,-0.5 2500,-0.5 2500,-0.5z"></path></g></g><g style="display: block;" transform="matrix(1,0,0,1.049375057220459,2500,415.672607421875)" opacity="1"><g opacity="1" transform="matrix(1,0,0,1,0,0)"><path fill="rgb(0,0,0)" fill-opacity="1" d=" M2500,-0.5 C2500,-0.5 2500,0.5 2500,0.5 C2500,0.5 -2500,0.5 -2500,0.5 C-2500,0.5 -2500,-0.5 -2500,-0.5 C-2500,-0.5 2500,-0.5 2500,-0.5z"></path></g></g><g style="display: block;" transform="matrix(1,0,0,0.9443125128746033,2500,431.6751708984375)" opacity="1"><g opacity="1" transform="matrix(1,0,0,1,0,0)"><path fill="rgb(0,0,0)" fill-opacity="1" d=" M2500,-0.5 C2500,-0.5 2500,0.5 2500,0.5 C2500,0.5 -2500,0.5 -2500,0.5 C-2500,0.5 -2500,-0.5 -2500,-0.5 C-2500,-0.5 2500,-0.5 2500,-0.5z"></path></g></g><g style="display: block;" transform="matrix(1,0,0,0.8392500281333923,2500,447.6852722167969)" opacity="1"><g opacity="1" transform="matrix(1,0,0,1,0,0)"><path fill="rgb(0,0,0)" fill-opacity="1" d=" M2500,-0.5 C2500,-0.5 2500,0.5 2500,0.5 C2500,0.5 -2500,0.5 -2500,0.5 C-2500,0.5 -2500,-0.5 -2500,-0.5 C-2500,-0.5 2500,-0.5 2500,-0.5z"></path></g></g><g style="display: block;" transform="matrix(1,0,0,0.7341874837875366,2500,463.7019348144531)" opacity="1"><g opacity="1" transform="matrix(1,0,0,1,0,0)"><path fill="rgb(0,0,0)" fill-opacity="1" d=" M2500,-0.5 C2500,-0.5 2500,0.5 2500,0.5 C2500,0.5 -2500,0.5 -2500,0.5 C-2500,0.5 -2500,-0.5 -2500,-0.5 C-2500,-0.5 2500,-0.5 2500,-0.5z"></path></g></g><g style="display: block;" transform="matrix(1,0,0,0.6291249990463257,2500,479.7244567871094)" opacity="1"><g opacity="1" transform="matrix(1,0,0,1,0,0)"><path fill="rgb(0,0,0)" fill-opacity="1" d=" M2500,-0.5 C2500,-0.5 2500,0.5 2500,0.5 C2500,0.5 -2500,0.5 -2500,0.5 C-2500,0.5 -2500,-0.5 -2500,-0.5 C-2500,-0.5 2500,-0.5 2500,-0.5z"></path></g></g><g style="display: block;" transform="matrix(1,0,0,0.5240625143051147,2500,495.75421142578125)" opacity="1"><g opacity="1" transform="matrix(1,0,0,1,0,0)"><path fill="rgb(0,0,0)" fill-opacity="1" d=" M2500,-0.5 C2500,-0.5 2500,0.5 2500,0.5 C2500,0.5 -2500,0.5 -2500,0.5 C-2500,0.5 -2500,-0.5 -2500,-0.5 C-2500,-0.5 2500,-0.5 2500,-0.5z"></path></g></g></g></g></g><g clip-path="url(#__lottie_element_349)" style="display: block;" transform="matrix(1,0,0,1,0,0)" opacity="1"><g mask="url(#__lottie_element_352_3)" style="display: block;"><g clip-path="url(#__lottie_element_363)" transform="matrix(1,0,0,1,0,0)" opacity="1"><g style="display: block;" transform="matrix(1,0,0,3,2500,1.5)" opacity="1"><g opacity="1" transform="matrix(1,0,0,1,0,0)"><path fill="rgb(0,0,0)" fill-opacity="1" d=" M2500,-0.5 C2500,-0.5 2500,0.5 2500,0.5 C2500,0.5 -2500,0.5 -2500,0.5 C-2500,0.5 -2500,-0.5 -2500,-0.5 C-2500,-0.5 2500,-0.5 2500,-0.5z"></path></g></g><g style="display: block;" transform="matrix(1,0,0,3.25,2500,17.524250030517578)" opacity="1"><g opacity="1" transform="matrix(1,0,0,1,0,0)"><path fill="rgb(0,0,0)" fill-opacity="1" d=" M2500,-0.5 C2500,-0.5 2500,0.5 2500,0.5 C2500,0.5 -2500,0.5 -2500,0.5 C-2500,0.5 -2500,-0.5 -2500,-0.5 C-2500,-0.5 2500,-0.5 2500,-0.5z"></path></g></g><g style="display: block;" transform="matrix(1,0,0,3.5,2500,33.53300094604492)" opacity="1"><g opacity="1" transform="matrix(1,0,0,1,0,0)"><path fill="rgb(0,0,0)" fill-opacity="1" d=" M2500,-0.5 C2500,-0.5 2500,0.5 2500,0.5 C2500,0.5 -2500,0.5 -2500,0.5 C-2500,0.5 -2500,-0.5 -2500,-0.5 C-2500,-0.5 2500,-0.5 2500,-0.5z"></path></g></g><g style="display: block;" transform="matrix(1,0,0,3.75,2500,49.522499084472656)" opacity="1"><g opacity="1" transform="matrix(1,0,0,1,0,0)"><path fill="rgb(0,0,0)" fill-opacity="1" d=" M2500,-0.5 C2500,-0.5 2500,0.5 2500,0.5 C2500,0.5 -2500,0.5 -2500,0.5 C-2500,0.5 -2500,-0.5 -2500,-0.5 C-2500,-0.5 2500,-0.5 2500,-0.5z"></path></g></g><g style="display: block;" transform="matrix(1,0,0,4,2500,65.5)" opacity="1"><g opacity="1" transform="matrix(1,0,0,1,0,0)"><path fill="rgb(0,0,0)" fill-opacity="1" d=" M2500,-0.5 C2500,-0.5 2500,0.5 2500,0.5 C2500,0.5 -2500,0.5 -2500,0.5 C-2500,0.5 -2500,-0.5 -2500,-0.5 C-2500,-0.5 2500,-0.5 2500,-0.5z"></path></g></g><g style="display: block;" transform="matrix(1,0,0,4.25,2500,81.46199798583984)" opacity="1"><g opacity="1" transform="matrix(1,0,0,1,0,0)"><path fill="rgb(0,0,0)" fill-opacity="1" d=" M2500,-0.5 C2500,-0.5 2500,0.5 2500,0.5 C2500,0.5 -2500,0.5 -2500,0.5 C-2500,0.5 -2500,-0.5 -2500,-0.5 C-2500,-0.5 2500,-0.5 2500,-0.5z"></path></g></g><g style="display: block;" transform="matrix(1,0,0,4.5,2500,97.40399932861328)" opacity="1"><g opacity="1" transform="matrix(1,0,0,1,0,0)"><path fill="rgb(0,0,0)" fill-opacity="1" d=" M2500,-0.5 C2500,-0.5 2500,0.5 2500,0.5 C2500,0.5 -2500,0.5 -2500,0.5 C-2500,0.5 -2500,-0.5 -2500,-0.5 C-2500,-0.5 2500,-0.5 2500,-0.5z"></path></g></g><g style="display: block;" transform="matrix(1,0,0,4.75,2500,113.33474731445312)" opacity="1"><g opacity="1" transform="matrix(1,0,0,1,0,0)"><path fill="rgb(0,0,0)" fill-opacity="1" d=" M2500,-0.5 C2500,-0.5 2500,0.5 2500,0.5 C2500,0.5 -2500,0.5 -2500,0.5 C-2500,0.5 -2500,-0.5 -2500,-0.5 C-2500,-0.5 2500,-0.5 2500,-0.5z"></path></g></g><g style="display: block;" transform="matrix(1,0,0,5,2500,129.25)" opacity="1"><g opacity="1" transform="matrix(1,0,0,1,0,0)"><path fill="rgb(0,0,0)" fill-opacity="1" d=" M2500,-0.5 C2500,-0.5 2500,0.5 2500,0.5 C2500,0.5 -2500,0.5 -2500,0.5 C-2500,0.5 -2500,-0.5 -2500,-0.5 C-2500,-0.5 2500,-0.5 2500,-0.5z"></path></g></g><g style="display: block;" transform="matrix(1,0,0,5.25,2500,145.14974975585938)" opacity="1"><g opacity="1" transform="matrix(1,0,0,1,0,0)"><path fill="rgb(0,0,0)" fill-opacity="1" d=" M2500,-0.5 C2500,-0.5 2500,0.5 2500,0.5 C2500,0.5 -2500,0.5 -2500,0.5 C-2500,0.5 -2500,-0.5 -2500,-0.5 C-2500,-0.5 2500,-0.5 2500,-0.5z"></path></g></g><g style="display: block;" transform="matrix(1,0,0,5.5,2500,161.03399658203125)" opacity="1"><g opacity="1" transform="matrix(1,0,0,1,0,0)"><path fill="rgb(0,0,0)" fill-opacity="1" d=" M2500,-0.5 C2500,-0.5 2500,0.5 2500,0.5 C2500,0.5 -2500,0.5 -2500,0.5 C-2500,0.5 -2500,-0.5 -2500,-0.5 C-2500,-0.5 2500,-0.5 2500,-0.5z"></path></g></g><g style="display: block;" transform="matrix(1,0,0,5.75,2500,176.89700317382812)" opacity="1"><g opacity="1" transform="matrix(1,0,0,1,0,0)"><path fill="rgb(0,0,0)" fill-opacity="1" d=" M2500,-0.5 C2500,-0.5 2500,0.5 2500,0.5 C2500,0.5 -2500,0.5 -2500,0.5 C-2500,0.5 -2500,-0.5 -2500,-0.5 C-2500,-0.5 2500,-0.5 2500,-0.5z"></path></g></g><g style="display: block;" transform="matrix(1,0,0,6,2500,192.75)" opacity="1"><g opacity="1" transform="matrix(1,0,0,1,0,0)"><path fill="rgb(0,0,0)" fill-opacity="1" d=" M2500,-0.5 C2500,-0.5 2500,0.5 2500,0.5 C2500,0.5 -2500,0.5 -2500,0.5 C-2500,0.5 -2500,-0.5 -2500,-0.5 C-2500,-0.5 2500,-0.5 2500,-0.5z"></path></g></g><g style="display: block;" transform="matrix(1,0,0,6.25,2500,208.58749389648438)" opacity="1"><g opacity="1" transform="matrix(1,0,0,1,0,0)"><path fill="rgb(0,0,0)" fill-opacity="1" d=" M2500,-0.5 C2500,-0.5 2500,0.5 2500,0.5 C2500,0.5 -2500,0.5 -2500,0.5 C-2500,0.5 -2500,-0.5 -2500,-0.5 C-2500,-0.5 2500,-0.5 2500,-0.5z"></path></g></g><g style="display: block;" transform="matrix(1,0,0,6.5,2500,224.4029998779297)" opacity="1"><g opacity="1" transform="matrix(1,0,0,1,0,0)"><path fill="rgb(0,0,0)" fill-opacity="1" d=" M2500,-0.5 C2500,-0.5 2500,0.5 2500,0.5 C2500,0.5 -2500,0.5 -2500,0.5 C-2500,0.5 -2500,-0.5 -2500,-0.5 C-2500,-0.5 2500,-0.5 2500,-0.5z"></path></g></g><g style="display: block;" transform="matrix(1,0,0,6.75,2500,240.20924377441406)" opacity="1"><g opacity="1" transform="matrix(1,0,0,1,0,0)"><path fill="rgb(0,0,0)" fill-opacity="1" d=" M2500,-0.5 C2500,-0.5 2500,0.5 2500,0.5 C2500,0.5 -2500,0.5 -2500,0.5 C-2500,0.5 -2500,-0.5 -2500,-0.5 C-2500,-0.5 2500,-0.5 2500,-0.5z"></path></g></g><g style="display: block;" transform="matrix(1,0,0,7,2500,256)" opacity="1"><g opacity="1" transform="matrix(1,0,0,1,0,0)"><path fill="rgb(0,0,0)" fill-opacity="1" d=" M2500,-0.5 C2500,-0.5 2500,0.5 2500,0.5 C2500,0.5 -2500,0.5 -2500,0.5 C-2500,0.5 -2500,-0.5 -2500,-0.5 C-2500,-0.5 2500,-0.5 2500,-0.5z"></path></g></g><g style="display: block;" transform="matrix(1,0,0,7.25,2500,271.7752380371094)" opacity="1"><g opacity="1" transform="matrix(1,0,0,1,0,0)"><path fill="rgb(0,0,0)" fill-opacity="1" d=" M2500,-0.5 C2500,-0.5 2500,0.5 2500,0.5 C2500,0.5 -2500,0.5 -2500,0.5 C-2500,0.5 -2500,-0.5 -2500,-0.5 C-2500,-0.5 2500,-0.5 2500,-0.5z"></path></g></g><g style="display: block;" transform="matrix(1,0,0,7.5,2500,287.5350036621094)" opacity="1"><g opacity="1" transform="matrix(1,0,0,1,0,0)"><path fill="rgb(0,0,0)" fill-opacity="1" d=" M2500,-0.5 C2500,-0.5 2500,0.5 2500,0.5 C2500,0.5 -2500,0.5 -2500,0.5 C-2500,0.5 -2500,-0.5 -2500,-0.5 C-2500,-0.5 2500,-0.5 2500,-0.5z"></path></g></g><g style="display: block;" transform="matrix(1,0,0,7.75,2500,303.2715148925781)" opacity="1"><g opacity="1" transform="matrix(1,0,0,1,0,0)"><path fill="rgb(0,0,0)" fill-opacity="1" d=" M2500,-0.5 C2500,-0.5 2500,0.5 2500,0.5 C2500,0.5 -2500,0.5 -2500,0.5 C-2500,0.5 -2500,-0.5 -2500,-0.5 C-2500,-0.5 2500,-0.5 2500,-0.5z"></path></g></g><g style="display: block;" transform="matrix(1,0,0,8,2500,319)" opacity="1"><g opacity="1" transform="matrix(1,0,0,1,0,0)"><path fill="rgb(0,0,0)" fill-opacity="1" d=" M2500,-0.5 C2500,-0.5 2500,0.5 2500,0.5 C2500,0.5 -2500,0.5 -2500,0.5 C-2500,0.5 -2500,-0.5 -2500,-0.5 C-2500,-0.5 2500,-0.5 2500,-0.5z"></path></g></g><g style="display: block;" transform="matrix(1,0,0,8.25,2500,334.7130126953125)" opacity="1"><g opacity="1" transform="matrix(1,0,0,1,0,0)"><path fill="rgb(0,0,0)" fill-opacity="1" d=" M2500,-0.5 C2500,-0.5 2500,0.5 2500,0.5 C2500,0.5 -2500,0.5 -2500,0.5 C-2500,0.5 -2500,-0.5 -2500,-0.5 C-2500,-0.5 2500,-0.5 2500,-0.5z"></path></g></g><g style="display: block;" transform="matrix(1,0,0,8.5,2500,350.4020080566406)" opacity="1"><g opacity="1" transform="matrix(1,0,0,1,0,0)"><path fill="rgb(0,0,0)" fill-opacity="1" d=" M2500,-0.5 C2500,-0.5 2500,0.5 2500,0.5 C2500,0.5 -2500,0.5 -2500,0.5 C-2500,0.5 -2500,-0.5 -2500,-0.5 C-2500,-0.5 2500,-0.5 2500,-0.5z"></path></g></g><g style="display: block;" transform="matrix(1,0,0,8.75,2500,366.083740234375)" opacity="1"><g opacity="1" transform="matrix(1,0,0,1,0,0)"><path fill="rgb(0,0,0)" fill-opacity="1" d=" M2500,-0.5 C2500,-0.5 2500,0.5 2500,0.5 C2500,0.5 -2500,0.5 -2500,0.5 C-2500,0.5 -2500,-0.5 -2500,-0.5 C-2500,-0.5 2500,-0.5 2500,-0.5z"></path></g></g><g style="display: block;" transform="matrix(1,0,0,9,2500,381.75)" opacity="1"><g opacity="1" transform="matrix(1,0,0,1,0,0)"><path fill="rgb(0,0,0)" fill-opacity="1" d=" M2500,-0.5 C2500,-0.5 2500,0.5 2500,0.5 C2500,0.5 -2500,0.5 -2500,0.5 C-2500,0.5 -2500,-0.5 -2500,-0.5 C-2500,-0.5 2500,-0.5 2500,-0.5z"></path></g></g><g style="display: block;" transform="matrix(1,0,0,9.25,2500,397.4007568359375)" opacity="1"><g opacity="1" transform="matrix(1,0,0,1,0,0)"><path fill="rgb(0,0,0)" fill-opacity="1" d=" M2500,-0.5 C2500,-0.5 2500,0.5 2500,0.5 C2500,0.5 -2500,0.5 -2500,0.5 C-2500,0.5 -2500,-0.5 -2500,-0.5 C-2500,-0.5 2500,-0.5 2500,-0.5z"></path></g></g><g style="display: block;" transform="matrix(1,0,0,9.5,2500,413.0360107421875)" opacity="1"><g opacity="1" transform="matrix(1,0,0,1,0,0)"><path fill="rgb(0,0,0)" fill-opacity="1" d=" M2500,-0.5 C2500,-0.5 2500,0.5 2500,0.5 C2500,0.5 -2500,0.5 -2500,0.5 C-2500,0.5 -2500,-0.5 -2500,-0.5 C-2500,-0.5 2500,-0.5 2500,-0.5z"></path></g></g><g style="display: block;" transform="matrix(1,0,0,9.75,2500,428.64599609375)" opacity="1"><g opacity="1" transform="matrix(1,0,0,1,0,0)"><path fill="rgb(0,0,0)" fill-opacity="1" d=" M2500,-0.5 C2500,-0.5 2500,0.5 2500,0.5 C2500,0.5 -2500,0.5 -2500,0.5 C-2500,0.5 -2500,-0.5 -2500,-0.5 C-2500,-0.5 2500,-0.5 2500,-0.5z"></path></g></g><g style="display: block;" transform="matrix(1,0,0,10,2500,444.25)" opacity="1"><g opacity="1" transform="matrix(1,0,0,1,0,0)"><path fill="rgb(0,0,0)" fill-opacity="1" d=" M2500,-0.5 C2500,-0.5 2500,0.5 2500,0.5 C2500,0.5 -2500,0.5 -2500,0.5 C-2500,0.5 -2500,-0.5 -2500,-0.5 C-2500,-0.5 2500,-0.5 2500,-0.5z"></path></g></g><g style="display: block;" transform="matrix(1,0,0,10.25,2500,459.8385009765625)" opacity="1"><g opacity="1" transform="matrix(1,0,0,1,0,0)"><path fill="rgb(0,0,0)" fill-opacity="1" d=" M2500,-0.5 C2500,-0.5 2500,0.5 2500,0.5 C2500,0.5 -2500,0.5 -2500,0.5 C-2500,0.5 -2500,-0.5 -2500,-0.5 C-2500,-0.5 2500,-0.5 2500,-0.5z"></path></g></g><g style="display: block;" transform="matrix(1,0,0,10.5,2500,475.4010009765625)" opacity="1"><g opacity="1" transform="matrix(1,0,0,1,0,0)"><path fill="rgb(0,0,0)" fill-opacity="1" d=" M2500,-0.5 C2500,-0.5 2500,0.5 2500,0.5 C2500,0.5 -2500,0.5 -2500,0.5 C-2500,0.5 -2500,-0.5 -2500,-0.5 C-2500,-0.5 2500,-0.5 2500,-0.5z"></path></g></g><g style="display: block;" transform="matrix(1,0,0,10.75,2500,490.958251953125)" opacity="1"><g opacity="1" transform="matrix(1,0,0,1,0,0)"><path fill="rgb(0,0,0)" fill-opacity="1" d=" M2500,-0.5 C2500,-0.5 2500,0.5 2500,0.5 C2500,0.5 -2500,0.5 -2500,0.5 C-2500,0.5 -2500,-0.5 -2500,-0.5 C-2500,-0.5 2500,-0.5 2500,-0.5z"></path></g></g></g></g></g></g></g></g></svg>