<?xml version="1.0" encoding="UTF-8"?>
<svg id="Layer_1" data-name="Layer 1" xmlns="http://www.w3.org/2000/svg" viewBox="0 0 128 112">
    <path d="M76.44,32L48,0l-1.17,3.53-1.64-1.65-1.09,3.43-1.74-1.55-1,3.33-1.82-1.43-.91,3.21-1.91-1.33-.83,3.11-2-1.23-.74,3-2.08-1.12-.66,2.9-2.16-1.01-.59,2.79-2.24-.91-.51,2.68-2.31-.8-.44,2.58-2.39-.7-.38,2.48-2.44-.59-.31,2.37-2.51-.49-.25,2.27-2.58-.39-.19,2.17-2.63-.29-.14,2.08-2.68-.19-.09,1.97-2.74-.09-.04,1.88H0v80h128V32h-51.56ZM127,34.35l-39.59-1.35h39.59v1.35ZM122.29,46.09l-31.99-7.71,31.99,6.2v1.5ZM121.36,48.46l-30.55-8.91,30.55,7.37v1.55ZM120.41,50.8l-29.01-10.04,29.01,8.46v1.58ZM118.52,55.5l-25.87-12.12,25.87,10.48v1.65ZM116.65,60.21l-22.83-14.01,22.83,12.28v1.73ZM114.77,64.89l-19.59-15.42,19.59,13.64v1.78ZM112.88,69.59l-16.52-16.52,16.52,14.67v1.85ZM111.94,70.06v1.87l-14.98-16.85,14.98,14.98ZM95.88,51.3l17.94,14.13v1.81l-17.94-15.94ZM60.38,33.08l1.77.12,2.2.24,2.09.31,1.9.37,1.9.46,1.74.51,1.63.57,1.62.66,1.73.81,1.35.73,1.61.99,1.18.82,1.48,1.17,1.14,1.01,1.17,1.17,26.1,29.36v22.62H17.39l9.06-27.18h0s11.61-34.82,11.61-34.82h19.98l2.34.08ZM37,33l-12.89,38.68,12.25-38.68h.64ZM94.74,47.94l20.96,12.86v1.73l-20.96-14.59ZM35.32,33l-13.07,41.25,12.38-41.25h.69ZM93.27,44.77l24.31,11.4v1.69l-24.31-13.09ZM33.58,33l-13.07,43.58,12.32-43.58h.75ZM91.89,41.99l27.58,9.55v1.62l-27.58-11.17ZM39.16,29.69v-.03s.67.1.67.1l-.67-.07ZM31.8,33l-13.05,46.16,12.25-46.16h.81ZM43.32,29.27l-3.83-.57.05-.16,3.77.73ZM39.86,27.58l.1-.3,6.68,1.61-6.78-1.31ZM38.48,28.55l-.68-.1.07-.23.67.13-.07.2ZM38.16,29.51l-.02.07-.67-.07.03-.09.66.1ZM36.46,29.4l-.73-.08.05-.16.73.11-.04.13ZM36.15,30.37h0s-.72-.04-.72-.04v-.04s.73.08.73.08ZM34.4,30.26l-.78-.05.03-.11.77.08-.02.08ZM32.33,31.12l-.83-.03v-.05s.84.06.84.06v.02ZM29.95,33l-13.02,49.06,12.14-49.06h.88ZM15.44,83.96l11.68-50.96h.93l-12.61,50.96ZM49.87,28.64l-9.6-2.31.15-.44,9.45,2.76ZM40.74,24.94l.2-.59,11.89,4.12-12.09-3.53ZM39.3,26.1l-.7-.17.17-.52.7.2-.16.49ZM38.98,27.05l-.11.34-.69-.13.12-.37.68.16ZM37.2,27.07l-.75-.15.13-.45.75.18-.13.41ZM36.89,28.03l-.09.27-.74-.11.09-.3.74.14ZM35.07,28.04l-.8-.12.11-.38.8.15-.1.34ZM34.78,29.01l-.06.2-.79-.09.07-.23.78.12ZM32.92,29.01l-.85-.09.08-.31.85.13-.08.27ZM32.65,29.99l-.04.14-.84-.06.05-.18.84.09ZM30.75,30l-.92-.06.06-.25.91.1-.06.21ZM30.49,30.98l-.02.08-.91-.03.03-.11.9.06ZM28.54,31l-.96-.03.04-.19.96.07-.04.15ZM28.29,31.99h0s-.95.01-.95.01v-.05s.95.03.95.03ZM26.31,32h-1.02l.02-.12,1.02.03-.02.08ZM26.08,33l-12.33,53.78,11.32-53.78h1ZM12.25,89.11l10.74-56.11h1.08l-11.82,56.11ZM123.24,43.75l-33.48-6.49,33.48,5.02v1.47ZM55.64,28.38l-14.39-4.98.25-.75,14.14,5.73ZM41.82,21.71l.3-.91,16.2,7.6-16.5-6.68ZM40.31,23.07l-.72-.25.27-.84.72.29-.27.8ZM39.99,24.02l-.21.64-.71-.21.21-.67.71.25ZM38.12,24.17l-.78-.23.23-.76.78.27-.23.72ZM37.81,25.13l-.18.57-.76-.18.18-.61.76.22ZM35.9,25.28l-.83-.2.2-.69.83.24-.2.65ZM35.61,26.24l-.15.49-.81-.16.15-.53.81.2ZM33.67,26.38l-.88-.17.16-.61.88.21-.16.57ZM33.39,27.35l-.12.42-.86-.13.12-.46.86.17ZM31.42,27.49l-.94-.14.13-.54.94.18-.13.5ZM31.16,28.46l-.09.35-.93-.1.1-.38.93.14ZM29.13,28.6l-.99-.11.11-.46.99.15-.1.42ZM28.89,29.58l-.07.29-.97-.07.07-.32.97.11ZM26.83,29.73l-1.05-.07.08-.4,1.05.11-.08.36ZM26.61,30.71l-.05.22-1.03-.04.05-.26,1.03.07ZM24.52,30.86l-1.11-.04.06-.34,1.11.08-.06.3ZM24.31,31.85l-.03.15h-1.1l.04-.19,1.09.04ZM22.17,32h-1.16l.04-.26,1.16.04-.04.22ZM21.97,33l-11.16,58.28,10.02-58.28h1.14ZM9.36,93.86l9.26-60.86h1.21l-10.47,60.86ZM124.18,41.4l-35.11-5.27,35.11,3.82v1.44ZM60.91,28.5l-18.47-8.66.36-1.08,18.11,9.74ZM43.13,17.78l.42-1.26,19.75,12.12-20.17-10.86ZM41.53,19.41l-.75-.35.38-1.19.75.4-.38,1.14ZM41.21,20.37l-.32.96-.74-.3.32-1.01.74.35ZM39.23,20.66l-.8-.33.33-1.11.81.38-.34,1.06ZM38.93,21.61l-.28.89-.79-.27.28-.93.79.32ZM36.91,21.9l-.86-.3.29-1.04.86.35-.3.98ZM36.62,22.86l-.24.81-.84-.25.24-.86.84.29ZM34.58,23.14l-.91-.27.25-.95.91.32-.26.9ZM34.31,24.11l-.21.74-.89-.22.21-.78.89.26ZM32.24,24.4l-.98-.24.22-.88.98.29-.22.83ZM31.98,25.36l-.17.66-.96-.19.17-.7.96.23ZM29.86,25.64l-1.02-.2.18-.8,1.02.25-.18.75ZM29.62,26.62l-.14.58-1-.15.14-.62,1,.19ZM27.48,26.9l-1.08-.16.15-.71,1.09.21-.15.67ZM27.26,27.88l-.12.5-1.07-.12.12-.55,1.07.16ZM25.09,28.16l-1.14-.12.12-.64,1.15.17-.12.59ZM24.88,29.15l-.09.44-1.13-.08.09-.48,1.13.12ZM22.66,29.44l-1.19-.08.1-.57,1.2.13-.1.52ZM22.47,30.42l-.07.37-1.17-.04.07-.41,1.17.08ZM20.22,30.71l-1.25-.04.08-.5,1.25.09-.08.45ZM20.05,31.7l-.05.3h-1.23l.05-.34,1.23.04ZM17.76,32h-1.29l.05-.42,1.29.04-.06.37ZM17.6,33l-9.56,62.85,8.29-62.85h1.27ZM6.69,98.45l7.27-65.45h1.35L6.69,98.45ZM125.12,39.05l-36.87-4.02,36.87,2.59v1.42ZM65.69,28.94l-21.82-13.39.49-1.46,21.33,14.86ZM44.69,13.09l.55-1.66,22.43,17.66-22.98-16ZM43,15.01l-.78-.48.5-1.59.79.55-.51,1.52ZM42.67,15.98l-.44,1.32-.77-.41.44-1.38.77.47ZM40.58,16.41l-.84-.45.45-1.5.84.52-.45,1.44ZM40.27,17.39l-.39,1.24-.82-.39.39-1.3.82.44ZM38.13,17.82l-.89-.42.4-1.42.9.48-.41,1.36ZM37.84,18.79l-.35,1.16-.87-.35.35-1.22.88.41ZM35.69,19.22l-.95-.38.35-1.34.95.45-.36,1.27ZM35.42,20.19l-.31,1.09-.93-.32.3-1.14.93.38ZM33.24,20.63l-1.02-.35.31-1.25,1.02.41-.32,1.19ZM32.98,21.6l-.27,1-.99-.29.26-1.06,1,.35ZM30.76,22.03l-1.06-.31.27-1.17,1.07.37-.27,1.11ZM30.52,23l-.23.93-1.04-.25.22-.98,1.04.3ZM28.28,23.44l-1.12-.27.23-1.09,1.13.33-.24,1.03ZM28.05,24.41l-.19.84-1.1-.21.19-.89,1.11.27ZM25.78,24.85l-1.19-.23.19-.99,1.2.29-.2.94ZM25.58,25.83l-.16.76-1.17-.17.15-.81,1.17.23ZM23.26,26.27l-1.24-.19.16-.91,1.24.24-.16.85ZM23.08,27.25l-.13.67-1.21-.13.12-.73,1.22.18ZM20.74,27.69l-1.29-.14.12-.82,1.3.2-.13.77ZM20.57,28.68l-.1.61-1.27-.09.1-.66,1.27.14ZM18.19,29.12l-1.34-.09.1-.75,1.34.15-.11.69ZM18.04,30.1l-.08.53-1.31-.04.08-.58,1.32.09ZM15.64,30.56l-1.4-.05.07-.67,1.41.1-.08.62ZM15.51,31.55l-.06.45h-1.38l.06-.5,1.38.05ZM13.07,32h-1.45l.05-.58,1.46.05-.06.53ZM12.96,33l-7.49,67.43,6.06-67.43h1.43ZM4.28,102.42l4.74-69.42h1.5l-6.24,69.42ZM126.06,36.71l-38.28-2.69,38.28,1.31v1.39ZM69.87,29.54l-24.29-19.12.63-1.89,23.66,21.01ZM46.56,7.49l.7-2.11,24.51,24.51L46.56,7.49ZM44.75,9.76l-.82-.64.65-2.04.82.73-.65,1.95ZM44.41,10.77l-.57,1.72-.8-.56.57-1.8.8.63ZM42.18,11.34l-.88-.61.58-1.95.88.69-.59,1.86ZM41.87,12.34l-.52,1.65-.86-.53.52-1.72.86.6ZM39.6,12.92l-.93-.57.53-1.87.94.65-.53,1.78ZM39.3,13.92l-.47,1.56-.91-.49.46-1.63.92.56ZM37.03,14.5l-.99-.53.47-1.77,1,.61-.48,1.69ZM36.75,15.49l-.42,1.48-.97-.45.41-1.55.97.52ZM34.44,16.09l-1.06-.5.42-1.68,1.07.58-.43,1.6ZM34.18,17.07l-.37,1.39-1.04-.42.36-1.46,1.04.49ZM31.84,17.66l-1.11-.45.36-1.59,1.12.52-.37,1.51ZM31.6,18.64l-.32,1.3-1.08-.38.31-1.37,1.09.44ZM29.24,19.24l-1.17-.41.32-1.5,1.19.48-.33,1.42ZM29.01,20.22l-.28,1.21-1.15-.34.27-1.28,1.16.4ZM26.63,20.82l-1.24-.36.27-1.4,1.25.43-.28,1.33ZM26.42,21.8l-.24,1.13-1.21-.29.23-1.2,1.22.36ZM24,22.41l-1.29-.31.23-1.31,1.3.38-.24,1.24ZM23.81,23.39l-.2,1.04-1.26-.24.19-1.1,1.27.31ZM21.38,24l-1.35-.26.18-1.21,1.36.33-.2,1.14ZM21.21,24.99l-.16.95-1.32-.2.15-1.01,1.33.26ZM18.73,25.59l-1.39-.21.15-1.11,1.41.27-.16,1.05ZM18.58,26.58l-.13.86-1.36-.15.12-.92,1.37.21ZM16.09,27.18l-1.46-.16.11-1.02,1.47.22-.13.96ZM15.96,28.17l-.1.78-1.43-.1.09-.84,1.44.16ZM13.43,28.79l-1.51-.11.08-.94,1.52.17-.1.88ZM13.32,29.77l-.08.7-1.48-.05.07-.76,1.49.1ZM10.76,30.39l-1.55-.05.06-.85,1.57.11-.07.79ZM10.67,31.38l-.06.62h-1.52l.05-.67,1.53.05ZM8.08,32h-1.61l.03-.76,1.62.06-.05.7ZM8.02,33L3.15,104.37l3.28-71.37h1.59ZM2.04,106.66l1.72-73.66h1.67l-3.39,73.66ZM48.4,1.96l25.17,28.31L47.61,4.32l.78-2.36ZM45.63,3.75l.84.84-.73,2.18-.84-.74.72-2.28ZM42.86,5.55l.9.8-.67,2.11-.9-.71.66-2.2ZM40.08,7.36l.96.76-.6,2.01-.95-.66.59-2.1ZM37.31,9.17l1.02.71-.54,1.93-1.01-.62.54-2.02ZM34.52,10.98l1.1.67-.48,1.83-1.09-.58.47-1.92ZM31.74,12.8l1.15.62-.43,1.74-1.14-.53.42-1.82ZM28.95,14.62l1.22.57-.38,1.64-1.2-.49.36-1.73ZM26.16,16.44l1.28.52-.33,1.55-1.27-.44.31-1.63ZM23.37,18.27l1.34.46-.28,1.45-1.32-.39.26-1.53ZM20.58,20.1l1.4.41-.23,1.36-1.38-.33.22-1.43ZM17.79,21.94l1.44.35-.19,1.26-1.43-.28.18-1.33ZM14.99,23.78l1.51.29-.15,1.16-1.49-.22.14-1.22ZM12.2,25.62l1.56.23-.12,1.06-1.54-.17.1-1.13ZM9.4,27.46l1.61.17-.09.98-1.59-.11.07-1.04ZM6.6,29.3l1.66.12-.06.89-1.64-.06.04-.95ZM3.8,31.15l1.71.06-.04.79h-1.7l.02-.85ZM2.75,33l-1.75,75.47V33h1.75Z" style="fill: #292929;"/>
    <rect x="32" y="64" width="64" height="16" style="fill: #292929;"/>
</svg>